<svg xmlns="http://www.w3.org/2000/svg" width="64" height="30" viewBox="0 0 64 30">
  <path fill="#292B2D" fill-rule="evenodd" d="M0,0 L0,29.56 L6.49988796,29.56 L6.49988796,0 L0,0 Z M12.2131653,0 L12.2131653,29.56 L18.2990476,29.56 L18.2990476,9.77053221 L18.3818487,9.77053221 L30.6778151,29.56 L37.1777031,29.56 L37.1777031,0 L31.0918207,0 L31.0918207,19.8308683 L31.0090196,19.8308683 L18.6716527,0 L12.2131653,0 Z M42.8909804,0 L42.8909804,29.56 L49.3908683,29.56 L49.3908683,17.3468347 L61.7696359,17.3468347 L61.7696359,12.2959664 L49.3908683,12.2959664 L49.3908683,5.46487395 L63.6740616,5.46487395 L63.6740616,0 L42.8909804,0 Z"/>
</svg>
