<svg xmlns="http://www.w3.org/2000/svg" width="41" height="38" viewBox="0 0 41 38">
  <g fill="#45474D">
    <path d="M0,38 L19.1942304,38 C19.88738,38 20.4492888,37.4469287 20.4492888,36.7646806 C20.4492888,36.0824326 19.88738,35.5293613 19.1942304,35.5293613 L4.92023557,35.5293613 L17.0524672,19.0584366 L9.89986995,19.0584366 L20.4271604,4.35147743 L30.7045613,19.3377911 C31.0923597,19.9032715 31.8724698,20.0522555 32.4469859,19.6705563 C33.0215021,19.288857 33.1728667,18.5210162 32.7850683,17.9555358 L20.4714172,0 L5.06083316,21.5290753 L12.1322316,21.5290753 L0,38 Z"/>
    <path d="M37.5615827,24.04 C36.9490735,23.752 36.2875637,23.872 35.969059,24.112 C35.4545513,24.424 34.9645441,25.384 34.9645441,26.368 L36.7285703,26.368 L36.7285703,28.312 L33.0535157,28.312 C33.1025164,29.296 33.6660248,30.112 34.6950401,30.544 C34.5725382,30.952 33.9355288,31.816 33.078016,31.768 C32.9065135,32.68 32.7595113,33.184 31.9754996,34 C31.2159883,33.184 31.0444858,32.68 30.8729833,31.768 C30.0154705,31.816 29.4029614,30.976 29.2559592,30.544 C30.2849745,30.112 30.8484829,29.296 30.8974836,28.312 L27.222429,28.312 L27.222429,26.368 L28.9864552,26.368 C28.9864552,25.384 28.4964479,24.424 27.9819403,24.112 C27.6634356,23.848 26.9774254,23.752 26.3894166,24.04 C25.605405,24.472 25.5564042,25.744 25.9729104,26.32 C22.2488551,25.648 22.6163605,22.12 23.8903795,20.848 C24.9193948,19.816 26.0219112,19.648 26.9039243,19.984 C28.8639534,20.68 30.1869731,22.96 30.2359738,26.392 L31.2649891,26.392 C31.2649891,23.272 30.7014807,22.288 29.2804596,18.376 C28.5454487,16.528 28.9864552,14.248 30.2849745,12.16 C30.7504814,11.416 31.3384902,10.72 32,10 C32.6615098,10.72 33.2495186,11.416 33.7150255,12.16 C35.0135448,14.272 35.4545513,16.552 34.7195404,18.376 C33.2740189,22.288 32.7350109,23.272 32.7350109,26.392 L33.7640262,26.392 C33.8375273,22.984 35.1360466,20.68 37.0960757,19.984 C37.9535885,19.648 39.0806052,19.816 40.1096205,20.848 C41.3836395,22.12 41.7511449,25.648 38.0270896,26.32 C38.3700947,25.744 38.3455943,24.496 37.5615827,24.04 Z"/>
  </g>
</svg>
