<svg xmlns="http://www.w3.org/2000/svg" width="266" height="34" viewBox="0 0 266 34">
  <path fill="#292B2D" fill-rule="evenodd" d="M76.312,0.576 L76.312,12 L77.832,12 L77.832,0.576 L76.312,0.576 Z M80.168,3.728 L80.168,12 L81.528,12 L81.528,7.328 C81.528,6.9546648 81.5786662,6.61066824 81.68,6.296 C81.7813338,5.98133176 81.9333323,5.70666784 82.136,5.472 C82.3386677,5.23733216 82.5919985,5.05600064 82.896,4.928 C83.2000015,4.79999936 83.5599979,4.736 83.976,4.736 C84.4986693,4.736 84.9093318,4.88533184 85.208,5.184 C85.5066682,5.48266816 85.656,5.88799744 85.656,6.4 L85.656,12 L87.016,12 L87.016,6.56 C87.016,6.11199776 86.9706671,5.70400184 86.88,5.336 C86.7893329,4.96799816 86.6320011,4.650668 86.408,4.384 C86.1839989,4.117332 85.8906685,3.90933408 85.528,3.76 C85.1653315,3.61066592 84.7120027,3.536 84.168,3.536 C82.9413272,3.536 82.0453362,4.03732832 81.48,5.04 L81.448,5.04 L81.448,3.728 L80.168,3.728 Z M89.896,9.392 L88.536,9.392 C88.5573334,9.90400256 88.663999,10.3386649 88.856,10.696 C89.048001,11.0533351 89.3039984,11.3413322 89.624,11.56 C89.9440016,11.7786678 90.3119979,11.9359995 90.728,12.032 C91.1440021,12.1280005 91.581331,12.176 92.04,12.176 C92.4560021,12.176 92.8746646,12.1360004 93.296,12.056 C93.7173354,11.9759996 94.0959983,11.8346677 94.432,11.632 C94.7680017,11.4293323 95.039999,11.1626683 95.248,10.832 C95.456001,10.5013317 95.56,10.0853358 95.56,9.584 C95.56,9.18933136 95.4826674,8.858668 95.328,8.592 C95.1733326,8.325332 94.9706679,8.10400088 94.72,7.928 C94.4693321,7.75199912 94.181335,7.6106672 93.856,7.504 C93.530665,7.3973328 93.197335,7.30666704 92.856,7.232 C92.5359984,7.15733296 92.2160016,7.08533368 91.896,7.016 C91.5759984,6.94666632 91.2880013,6.86133384 91.032,6.76 C90.7759987,6.65866616 90.5653342,6.53066744 90.4,6.376 C90.2346658,6.22133256 90.152,6.02666784 90.152,5.792 C90.152,5.5786656 90.2053328,5.405334 90.312,5.272 C90.4186672,5.138666 90.5573325,5.0320004 90.728,4.952 C90.8986675,4.8719996 91.087999,4.81600016 91.296,4.784 C91.504001,4.75199984 91.7093323,4.736 91.912,4.736 C92.1360011,4.736 92.3573322,4.75999976 92.576,4.808 C92.7946678,4.85600024 92.9946658,4.9333328 93.176,5.04 C93.3573342,5.1466672 93.5066661,5.28799912 93.624,5.464 C93.7413339,5.64000088 93.8106666,5.861332 93.832,6.128 L95.192,6.128 C95.1599998,5.62666416 95.0533342,5.20800168 94.872,4.872 C94.6906658,4.53599832 94.4480015,4.26933432 94.144,4.072 C93.8399985,3.87466568 93.4906686,3.7360004 93.096,3.656 C92.7013314,3.5759996 92.2693357,3.536 91.8,3.536 C91.4373315,3.536 91.0720018,3.58133288 90.704,3.672 C90.3359982,3.76266712 90.0053348,3.9013324 89.712,4.088 C89.4186652,4.2746676 89.1786676,4.51733184 88.992,4.816 C88.8053324,5.11466816 88.712,5.47199792 88.712,5.888 C88.712,6.421336 88.845332,6.83733184 89.112,7.136 C89.378668,7.43466816 89.711998,7.66666584 90.112,7.832 C90.512002,7.99733416 90.9466643,8.12533288 91.416,8.216 C91.8853357,8.30666712 92.319998,8.40799944 92.72,8.52 C93.120002,8.63200056 93.453332,8.77866576 93.72,8.96 C93.986668,9.14133424 94.12,9.40799824 94.12,9.76 C94.12,10.0160013 94.0560006,10.2266658 93.928,10.392 C93.7999994,10.5573342 93.6373343,10.6826662 93.44,10.768 C93.2426657,10.8533338 93.0266678,10.9119998 92.792,10.944 C92.5573322,10.9760002 92.3333344,10.992 92.12,10.992 C91.8426653,10.992 91.5733346,10.9653336 91.312,10.912 C91.0506654,10.8586664 90.816001,10.7706673 90.608,10.648 C90.399999,10.5253327 90.2320006,10.360001 90.104,10.152 C89.9759994,9.94399896 89.9066667,9.69066816 89.896,9.392 Z M98.952,3.728 L98.952,1.248 L97.592,1.248 L97.592,3.728 L96.184,3.728 L96.184,4.928 L97.592,4.928 L97.592,10.192 C97.592,10.5760019 97.629333,10.8853322 97.704,11.12 C97.778667,11.3546678 97.8933326,11.5359994 98.048,11.664 C98.2026674,11.7920006 98.4053321,11.8799998 98.656,11.928 C98.9066679,11.9760002 99.2079982,12 99.56,12 L100.6,12 L100.6,10.8 L99.976,10.8 C99.7626656,10.8 99.589334,10.7920001 99.456,10.776 C99.322666,10.7599999 99.218667,10.7253336 99.144,10.672 C99.069333,10.6186664 99.0186668,10.5440005 98.992,10.448 C98.9653332,10.3519995 98.952,10.2240008 98.952,10.064 L98.952,4.928 L100.6,4.928 L100.6,3.728 L98.952,3.728 Z M103.544,2.24 L103.544,0.576 L102.184,0.576 L102.184,2.24 L103.544,2.24 Z M102.184,3.728 L102.184,12 L103.544,12 L103.544,3.728 L102.184,3.728 Z M107.544,3.728 L107.544,1.248 L106.184,1.248 L106.184,3.728 L104.776,3.728 L104.776,4.928 L106.184,4.928 L106.184,10.192 C106.184,10.5760019 106.221333,10.8853322 106.296,11.12 C106.370667,11.3546678 106.485333,11.5359994 106.64,11.664 C106.794667,11.7920006 106.997332,11.8799998 107.248,11.928 C107.498668,11.9760002 107.799998,12 108.152,12 L109.192,12 L109.192,10.8 L108.568,10.8 C108.354666,10.8 108.181334,10.7920001 108.048,10.776 C107.914666,10.7599999 107.810667,10.7253336 107.736,10.672 C107.661333,10.6186664 107.610667,10.5440005 107.584,10.448 C107.557333,10.3519995 107.544,10.2240008 107.544,10.064 L107.544,4.928 L109.192,4.928 L109.192,3.728 L107.544,3.728 Z M117.544,12 L117.544,3.728 L116.184,3.728 L116.184,8.4 C116.184,8.7733352 116.133334,9.11733176 116.032,9.432 C115.930666,9.74666824 115.778668,10.0213322 115.576,10.256 C115.373332,10.4906678 115.120002,10.6719994 114.816,10.8 C114.511998,10.9280006 114.152002,10.992 113.736,10.992 C113.213331,10.992 112.802668,10.8426682 112.504,10.544 C112.205332,10.2453318 112.056,9.84000256 112.056,9.328 L112.056,3.728 L110.696,3.728 L110.696,9.168 C110.696,9.61600224 110.741333,10.0239982 110.832,10.392 C110.922667,10.7600018 111.079999,11.077332 111.304,11.344 C111.528001,11.610668 111.821332,11.8159993 112.184,11.96 C112.546668,12.1040007 112.999997,12.176 113.544,12.176 C114.152003,12.176 114.679998,12.0560012 115.128,11.816 C115.576002,11.5759988 115.943999,11.2000026 116.232,10.688 L116.264,10.688 L116.264,12 L117.544,12 Z M121.48,3.728 L121.48,1.248 L120.12,1.248 L120.12,3.728 L118.712,3.728 L118.712,4.928 L120.12,4.928 L120.12,10.192 C120.12,10.5760019 120.157333,10.8853322 120.232,11.12 C120.306667,11.3546678 120.421333,11.5359994 120.576,11.664 C120.730667,11.7920006 120.933332,11.8799998 121.184,11.928 C121.434668,11.9760002 121.735998,12 122.088,12 L123.128,12 L123.128,10.8 L122.504,10.8 C122.290666,10.8 122.117334,10.7920001 121.984,10.776 C121.850666,10.7599999 121.746667,10.7253336 121.672,10.672 C121.597333,10.6186664 121.546667,10.5440005 121.52,10.448 C121.493333,10.3519995 121.48,10.2240008 121.48,10.064 L121.48,4.928 L123.128,4.928 L123.128,3.728 L121.48,3.728 Z M130.072,7.936 C130.072,8.32000192 130.122666,8.69599816 130.224,9.064 C130.325334,9.43200184 130.479999,9.75999856 130.688,10.048 C130.896001,10.3360014 131.162665,10.5653325 131.488,10.736 C131.813335,10.9066675 132.194664,10.992 132.632,10.992 C133.090669,10.992 133.479998,10.9013342 133.8,10.72 C134.120002,10.5386658 134.381332,10.3013348 134.584,10.008 C134.786668,9.7146652 134.933333,9.3813352 135.024,9.008 C135.114667,8.6346648 135.16,8.25600192 135.16,7.872 C135.16,7.46666464 135.112,7.07466856 135.016,6.696 C134.92,6.31733144 134.768001,5.98400144 134.56,5.696 C134.351999,5.40799856 134.082668,5.17600088 133.752,5 C133.421332,4.82399912 133.021336,4.736 132.552,4.736 C132.093331,4.736 131.704002,4.82666576 131.384,5.008 C131.063998,5.18933424 130.808001,5.42933184 130.616,5.728 C130.423999,6.02666816 130.285334,6.36799808 130.2,6.752 C130.114666,7.13600192 130.072,7.53066464 130.072,7.936 Z M136.472,12 L135.112,12 L135.112,10.88 L135.08,10.88 C134.855999,11.338669 134.504002,11.6693323 134.024,11.872 C133.543998,12.0746677 133.016003,12.176 132.44,12.176 C131.799997,12.176 131.242669,12.0586678 130.768,11.824 C130.293331,11.5893322 129.898668,11.2746686 129.584,10.88 C129.269332,10.4853314 129.032001,10.0266693 128.872,9.504 C128.711999,8.98133072 128.632,8.4266696 128.632,7.84 C128.632,7.2533304 128.709333,6.69866928 128.864,6.176 C129.018667,5.65333072 129.253332,5.19733528 129.568,4.808 C129.882668,4.41866472 130.277331,4.10933448 130.752,3.88 C131.226669,3.65066552 131.778664,3.536 132.408,3.536 C132.621334,3.536 132.850665,3.55733312 133.096,3.6 C133.341335,3.64266688 133.586665,3.71466616 133.832,3.816 C134.077335,3.91733384 134.309332,4.05066584 134.528,4.216 C134.746668,4.38133416 134.930666,4.58666544 135.08,4.832 L135.112,4.832 L135.112,0.576 L136.472,0.576 L136.472,12 Z M144.312,7.072 C144.290667,6.7519984 144.218667,6.44800144 144.096,6.16 C143.973333,5.87199856 143.808001,5.62400104 143.6,5.416 C143.391999,5.20799896 143.146668,5.04266728 142.864,4.92 C142.581332,4.79733272 142.269335,4.736 141.928,4.736 C141.575998,4.736 141.258668,4.79733272 140.976,4.92 C140.693332,5.04266728 140.450668,5.2106656 140.248,5.424 C140.045332,5.6373344 139.885334,5.88533192 139.768,6.168 C139.650666,6.45066808 139.581333,6.7519984 139.56,7.072 L144.312,7.072 Z M145.624,9.376 C145.442666,10.3040046 145.04267,11.0026643 144.424,11.472 C143.80533,11.9413357 143.026671,12.176 142.088,12.176 C141.426663,12.176 140.853336,12.0693344 140.368,11.856 C139.882664,11.6426656 139.474668,11.3440019 139.144,10.96 C138.813332,10.5759981 138.565334,10.117336 138.4,9.584 C138.234666,9.050664 138.141333,8.46933648 138.12,7.84 C138.12,7.21066352 138.215999,6.63466928 138.408,6.112 C138.600001,5.58933072 138.869332,5.13600192 139.216,4.752 C139.562668,4.36799808 139.973331,4.0693344 140.448,3.856 C140.922669,3.6426656 141.442664,3.536 142.008,3.536 C142.744004,3.536 143.354664,3.68799848 143.84,3.992 C144.325336,4.29600152 144.714665,4.68266432 145.008,5.152 C145.301335,5.62133568 145.503999,6.13333056 145.616,6.688 C145.728001,7.24266944 145.773333,7.77066416 145.752,8.272 L139.56,8.272 C139.549333,8.63466848 139.592,8.97866504 139.688,9.304 C139.784,9.62933496 139.938666,9.91733208 140.152,10.168 C140.365334,10.4186679 140.637332,10.6186659 140.968,10.768 C141.298668,10.9173341 141.687998,10.992 142.136,10.992 C142.712003,10.992 143.183998,10.858668 143.552,10.592 C143.920002,10.325332 144.162666,9.92000272 144.28,9.376 L145.624,9.376 Z M76.104,18.576 L76.104,30 L78.456,30 L78.456,22.352 L78.488,22.352 L83.24,30 L85.752,30 L85.752,18.576 L83.4,18.576 L83.4,26.24 L83.368,26.24 L78.6,18.576 L76.104,18.576 Z M93.288,24.976 C93.1813328,24.3999971 92.9920014,23.9626682 92.72,23.664 C92.4479986,23.3653318 92.0346694,23.216 91.48,23.216 C91.1173315,23.216 90.8160012,23.2773327 90.576,23.4 C90.3359988,23.5226673 90.1440007,23.6746658 90,23.856 C89.8559993,24.0373342 89.754667,24.2293323 89.696,24.432 C89.637333,24.6346677 89.6026667,24.8159992 89.592,24.976 L93.288,24.976 Z M89.592,26.416 C89.6240002,27.1520037 89.810665,27.6853317 90.152,28.016 C90.493335,28.3466683 90.9839968,28.512 91.624,28.512 C92.082669,28.512 92.4773317,28.3973345 92.808,28.168 C93.1386683,27.9386655 93.341333,27.6960013 93.416,27.44 L95.416,27.44 C95.0959984,28.432005 94.6053366,29.1413312 93.944,29.568 C93.2826634,29.9946688 92.4826714,30.208 91.544,30.208 C90.8933301,30.208 90.3066693,30.104001 89.784,29.896 C89.2613307,29.687999 88.8186685,29.3920019 88.456,29.008 C88.0933315,28.6239981 87.8133343,28.165336 87.616,27.632 C87.4186657,27.098664 87.32,26.5120032 87.32,25.872 C87.32,25.2533302 87.4213323,24.677336 87.624,24.144 C87.8266677,23.610664 88.1146648,23.1493353 88.488,22.76 C88.8613352,22.3706647 89.3066641,22.0640011 89.824,21.84 C90.3413359,21.6159989 90.9146635,21.504 91.544,21.504 C92.2480035,21.504 92.8613307,21.6399986 93.384,21.912 C93.9066693,22.1840014 94.3359983,22.549331 94.672,23.008 C95.0080017,23.466669 95.2506659,23.9893304 95.4,24.576 C95.5493341,25.1626696 95.6026669,25.7759968 95.56,26.416 L89.592,26.416 Z M104.664,30 L104.664,21.728 L102.392,21.728 L102.392,26.064 C102.392,26.9066709 102.253335,27.5119982 101.976,27.88 C101.698665,28.2480018 101.25067,28.432 100.632,28.432 C100.087997,28.432 99.7093344,28.2640017 99.496,27.928 C99.2826656,27.5919983 99.176,27.0826701 99.176,26.4 L99.176,21.728 L96.904,21.728 L96.904,26.816 C96.904,27.3280026 96.9493329,27.7946646 97.04,28.216 C97.1306671,28.6373354 97.2879989,28.9946652 97.512,29.288 C97.7360011,29.5813348 98.0426647,29.8079992 98.432,29.968 C98.8213353,30.1280008 99.319997,30.208 99.928,30.208 C100.408002,30.208 100.877331,30.1013344 101.336,29.888 C101.794669,29.6746656 102.167999,29.3280024 102.456,28.848 L102.504,28.848 L102.504,30 L104.664,30 Z M106.392,21.728 L106.392,30 L108.664,30 L108.664,26.272 C108.664,25.8986648 108.701333,25.5520016 108.776,25.232 C108.850667,24.9119984 108.975999,24.6320012 109.152,24.392 C109.328001,24.1519988 109.559999,23.9626674 109.848,23.824 C110.136001,23.6853326 110.487998,23.616 110.904,23.616 C111.042667,23.616 111.186666,23.6239999 111.336,23.64 C111.485334,23.6560001 111.613333,23.6746666 111.72,23.696 L111.72,21.584 C111.538666,21.5306664 111.373334,21.504 111.224,21.504 C110.935999,21.504 110.658668,21.5466662 110.392,21.632 C110.125332,21.7173338 109.874668,21.8373326 109.64,21.992 C109.405332,22.1466674 109.197334,22.3333322 109.016,22.552 C108.834666,22.7706678 108.690667,23.0079987 108.584,23.264 L108.552,23.264 L108.552,21.728 L106.392,21.728 Z M114.632,25.872 C114.632,26.2026683 114.664,26.5253318 114.728,26.84 C114.792,27.1546682 114.901333,27.4373321 115.056,27.688 C115.210667,27.9386679 115.415999,28.1386659 115.672,28.288 C115.928001,28.4373341 116.247998,28.512 116.632,28.512 C117.016002,28.512 117.338665,28.4373341 117.6,28.288 C117.861335,28.1386659 118.069333,27.9386679 118.224,27.688 C118.378667,27.4373321 118.488,27.1546682 118.552,26.84 C118.616,26.5253318 118.648,26.2026683 118.648,25.872 C118.648,25.5413317 118.616,25.2160016 118.552,24.896 C118.488,24.5759984 118.378667,24.2933346 118.224,24.048 C118.069333,23.8026654 117.861335,23.6026674 117.6,23.448 C117.338665,23.2933326 117.016002,23.216 116.632,23.216 C116.247998,23.216 115.928001,23.2933326 115.672,23.448 C115.415999,23.6026674 115.210667,23.8026654 115.056,24.048 C114.901333,24.2933346 114.792,24.5759984 114.728,24.896 C114.664,25.2160016 114.632,25.5413317 114.632,25.872 Z M112.36,25.872 C112.36,25.2106634 112.461332,24.6106694 112.664,24.072 C112.866668,23.5333306 113.154665,23.0746686 113.528,22.696 C113.901335,22.3173314 114.349331,22.024001 114.872,21.816 C115.394669,21.607999 115.98133,21.504 116.632,21.504 C117.28267,21.504 117.871997,21.607999 118.4,21.816 C118.928003,22.024001 119.378665,22.3173314 119.752,22.696 C120.125335,23.0746686 120.413332,23.5333306 120.616,24.072 C120.818668,24.6106694 120.92,25.2106634 120.92,25.872 C120.92,26.5333366 120.818668,27.130664 120.616,27.664 C120.413332,28.197336 120.125335,28.6533314 119.752,29.032 C119.378665,29.4106686 118.928003,29.7013323 118.4,29.904 C117.871997,30.1066677 117.28267,30.208 116.632,30.208 C115.98133,30.208 115.394669,30.1066677 114.872,29.904 C114.349331,29.7013323 113.901335,29.4106686 113.528,29.032 C113.154665,28.6533314 112.866668,28.197336 112.664,27.664 C112.461332,27.130664 112.36,26.5333366 112.36,25.872 Z M122.456,18.576 L122.456,30 L124.728,30 L124.728,18.576 L122.456,18.576 Z M128.536,25.872 C128.536,26.2026683 128.568,26.5253318 128.632,26.84 C128.696,27.1546682 128.805333,27.4373321 128.96,27.688 C129.114667,27.9386679 129.319999,28.1386659 129.576,28.288 C129.832001,28.4373341 130.151998,28.512 130.536,28.512 C130.920002,28.512 131.242665,28.4373341 131.504,28.288 C131.765335,28.1386659 131.973333,27.9386679 132.128,27.688 C132.282667,27.4373321 132.392,27.1546682 132.456,26.84 C132.52,26.5253318 132.552,26.2026683 132.552,25.872 C132.552,25.5413317 132.52,25.2160016 132.456,24.896 C132.392,24.5759984 132.282667,24.2933346 132.128,24.048 C131.973333,23.8026654 131.765335,23.6026674 131.504,23.448 C131.242665,23.2933326 130.920002,23.216 130.536,23.216 C130.151998,23.216 129.832001,23.2933326 129.576,23.448 C129.319999,23.6026674 129.114667,23.8026654 128.96,24.048 C128.805333,24.2933346 128.696,24.5759984 128.632,24.896 C128.568,25.2160016 128.536,25.5413317 128.536,25.872 Z M126.264,25.872 C126.264,25.2106634 126.365332,24.6106694 126.568,24.072 C126.770668,23.5333306 127.058665,23.0746686 127.432,22.696 C127.805335,22.3173314 128.253331,22.024001 128.776,21.816 C129.298669,21.607999 129.88533,21.504 130.536,21.504 C131.18667,21.504 131.775997,21.607999 132.304,21.816 C132.832003,22.024001 133.282665,22.3173314 133.656,22.696 C134.029335,23.0746686 134.317332,23.5333306 134.52,24.072 C134.722668,24.6106694 134.824,25.2106634 134.824,25.872 C134.824,26.5333366 134.722668,27.130664 134.52,27.664 C134.317332,28.197336 134.029335,28.6533314 133.656,29.032 C133.282665,29.4106686 132.832003,29.7013323 132.304,29.904 C131.775997,30.1066677 131.18667,30.208 130.536,30.208 C129.88533,30.208 129.298669,30.1066677 128.776,29.904 C128.253331,29.7013323 127.805335,29.4106686 127.432,29.032 C127.058665,28.6533314 126.770668,28.197336 126.568,27.664 C126.365332,27.130664 126.264,26.5333366 126.264,25.872 Z M140.152,28.048 C140.472002,28.048 140.754665,27.9840006 141,27.856 C141.245335,27.7279994 141.447999,27.5573344 141.608,27.344 C141.768001,27.1306656 141.888,26.8880014 141.968,26.616 C142.048,26.3439986 142.088,26.0586682 142.088,25.76 C142.088,25.418665 142.056,25.0960015 141.992,24.792 C141.928,24.4879985 141.821334,24.2186678 141.672,23.984 C141.522666,23.7493322 141.325335,23.5626674 141.08,23.424 C140.834665,23.2853326 140.525335,23.216 140.152,23.216 C139.831998,23.216 139.557334,23.2799994 139.328,23.408 C139.098666,23.5360006 138.906667,23.7093322 138.752,23.928 C138.597333,24.1466678 138.485334,24.3973319 138.416,24.68 C138.346666,24.9626681 138.312,25.2586651 138.312,25.568 C138.312,25.8666682 138.341333,26.1626652 138.4,26.456 C138.458667,26.7493348 138.559999,27.0133322 138.704,27.248 C138.848001,27.4826678 139.037332,27.6746659 139.272,27.824 C139.506668,27.9733341 139.799998,28.048 140.152,28.048 Z M144.248,29.472 C144.248,29.8026683 144.202667,30.1813312 144.112,30.608 C144.021333,31.0346688 143.826668,31.4319982 143.528,31.8 C143.229332,32.1680018 142.797336,32.4799987 142.232,32.736 C141.666664,32.9920013 140.909338,33.12 139.96,33.12 C139.554665,33.12 139.141335,33.0693338 138.72,32.968 C138.298665,32.8666662 137.914668,32.7093344 137.568,32.496 C137.221332,32.2826656 136.933334,32.0080017 136.704,31.672 C136.474666,31.3359983 136.344,30.9333357 136.312,30.464 L138.568,30.464 C138.674667,30.8906688 138.882665,31.1866658 139.192,31.352 C139.501335,31.5173342 139.858665,31.6 140.264,31.6 C140.904003,31.6 141.370665,31.4080019 141.664,31.024 C141.957335,30.6399981 142.098667,30.1546696 142.088,29.568 L142.088,28.48 L142.056,28.48 C141.810665,28.9173355 141.461336,29.239999 141.008,29.448 C140.554664,29.656001 140.077336,29.76 139.576,29.76 C138.95733,29.76 138.424002,29.6506678 137.976,29.432 C137.527998,29.2133322 137.160001,28.9146686 136.872,28.536 C136.583999,28.1573314 136.373334,27.7146692 136.24,27.208 C136.106666,26.7013308 136.04,26.1653362 136.04,25.6 C136.04,25.066664 136.117333,24.5520025 136.272,24.056 C136.426667,23.5599975 136.653332,23.1226686 136.952,22.744 C137.250668,22.3653314 137.621331,22.0640011 138.064,21.84 C138.506669,21.6159989 139.015997,21.504 139.592,21.504 C140.136003,21.504 140.613331,21.6053323 141.024,21.808 C141.434669,22.0106677 141.778665,22.3519976 142.056,22.832 L142.088,22.832 L142.088,21.728 L144.248,21.728 L144.248,29.472 Z M148.408,20.448 L148.408,18.576 L146.136,18.576 L146.136,20.448 L148.408,20.448 Z M146.136,21.728 L146.136,30 L148.408,30 L148.408,21.728 L146.136,21.728 Z M155.768,24.976 C155.661333,24.3999971 155.472001,23.9626682 155.2,23.664 C154.927999,23.3653318 154.514669,23.216 153.96,23.216 C153.597332,23.216 153.296001,23.2773327 153.056,23.4 C152.815999,23.5226673 152.624001,23.6746658 152.48,23.856 C152.335999,24.0373342 152.234667,24.2293323 152.176,24.432 C152.117333,24.6346677 152.082667,24.8159992 152.072,24.976 L155.768,24.976 Z M152.072,26.416 C152.104,27.1520037 152.290665,27.6853317 152.632,28.016 C152.973335,28.3466683 153.463997,28.512 154.104,28.512 C154.562669,28.512 154.957332,28.3973345 155.288,28.168 C155.618668,27.9386655 155.821333,27.6960013 155.896,27.44 L157.896,27.44 C157.575998,28.432005 157.085337,29.1413312 156.424,29.568 C155.762663,29.9946688 154.962671,30.208 154.024,30.208 C153.37333,30.208 152.786669,30.104001 152.264,29.896 C151.741331,29.687999 151.298668,29.3920019 150.936,29.008 C150.573332,28.6239981 150.293334,28.165336 150.096,27.632 C149.898666,27.098664 149.8,26.5120032 149.8,25.872 C149.8,25.2533302 149.901332,24.677336 150.104,24.144 C150.306668,23.610664 150.594665,23.1493353 150.968,22.76 C151.341335,22.3706647 151.786664,22.0640011 152.304,21.84 C152.821336,21.6159989 153.394664,21.504 154.024,21.504 C154.728004,21.504 155.341331,21.6399986 155.864,21.912 C156.386669,22.1840014 156.815998,22.549331 157.152,23.008 C157.488002,23.466669 157.730666,23.9893304 157.88,24.576 C158.029334,25.1626696 158.082667,25.7759968 158.04,26.416 L152.072,26.416 Z M164.072,18.576 L164.072,30 L166.584,30 L166.584,25.28 L171.368,25.28 L171.368,23.328 L166.584,23.328 L166.584,20.688 L172.104,20.688 L172.104,18.576 L164.072,18.576 Z M175.336,25.872 C175.336,26.2026683 175.368,26.5253318 175.432,26.84 C175.496,27.1546682 175.605333,27.4373321 175.76,27.688 C175.914667,27.9386679 176.119999,28.1386659 176.376,28.288 C176.632001,28.4373341 176.951998,28.512 177.336,28.512 C177.720002,28.512 178.042665,28.4373341 178.304,28.288 C178.565335,28.1386659 178.773333,27.9386679 178.928,27.688 C179.082667,27.4373321 179.192,27.1546682 179.256,26.84 C179.32,26.5253318 179.352,26.2026683 179.352,25.872 C179.352,25.5413317 179.32,25.2160016 179.256,24.896 C179.192,24.5759984 179.082667,24.2933346 178.928,24.048 C178.773333,23.8026654 178.565335,23.6026674 178.304,23.448 C178.042665,23.2933326 177.720002,23.216 177.336,23.216 C176.951998,23.216 176.632001,23.2933326 176.376,23.448 C176.119999,23.6026674 175.914667,23.8026654 175.76,24.048 C175.605333,24.2933346 175.496,24.5759984 175.432,24.896 C175.368,25.2160016 175.336,25.5413317 175.336,25.872 Z M173.064,25.872 C173.064,25.2106634 173.165332,24.6106694 173.368,24.072 C173.570668,23.5333306 173.858665,23.0746686 174.232,22.696 C174.605335,22.3173314 175.053331,22.024001 175.576,21.816 C176.098669,21.607999 176.68533,21.504 177.336,21.504 C177.98667,21.504 178.575997,21.607999 179.104,21.816 C179.632003,22.024001 180.082665,22.3173314 180.456,22.696 C180.829335,23.0746686 181.117332,23.5333306 181.32,24.072 C181.522668,24.6106694 181.624,25.2106634 181.624,25.872 C181.624,26.5333366 181.522668,27.130664 181.32,27.664 C181.117332,28.197336 180.829335,28.6533314 180.456,29.032 C180.082665,29.4106686 179.632003,29.7013323 179.104,29.904 C178.575997,30.1066677 177.98667,30.208 177.336,30.208 C176.68533,30.208 176.098669,30.1066677 175.576,29.904 C175.053331,29.7013323 174.605335,29.4106686 174.232,29.032 C173.858665,28.6533314 173.570668,28.197336 173.368,27.664 C173.165332,27.130664 173.064,26.5333366 173.064,25.872 Z M183.096,21.728 L183.096,30 L185.368,30 L185.368,25.664 C185.368,24.8213291 185.506665,24.2160018 185.784,23.848 C186.061335,23.4799982 186.50933,23.296 187.128,23.296 C187.672003,23.296 188.050666,23.4639983 188.264,23.8 C188.477334,24.1360017 188.584,24.6453299 188.584,25.328 L188.584,30 L190.856,30 L190.856,24.912 C190.856,24.3999974 190.810667,23.9333354 190.72,23.512 C190.629333,23.0906646 190.472001,22.7333348 190.248,22.44 C190.023999,22.1466652 189.717335,21.9173342 189.328,21.752 C188.938665,21.5866658 188.440003,21.504 187.832,21.504 C187.351998,21.504 186.882669,21.6133322 186.424,21.832 C185.965331,22.0506678 185.592001,22.3999976 185.304,22.88 L185.256,22.88 L185.256,21.728 L183.096,21.728 Z M198.216,24.64 L200.44,24.64 C200.408,24.106664 200.280001,23.6453353 200.056,23.256 C199.831999,22.8666647 199.541335,22.5413346 199.184,22.28 C198.826665,22.0186654 198.421336,21.8240006 197.968,21.696 C197.514664,21.5679994 197.042669,21.504 196.552,21.504 C195.879997,21.504 195.282669,21.6159989 194.76,21.84 C194.237331,22.0640011 193.794668,22.375998 193.432,22.776 C193.069332,23.176002 192.794668,23.6506639 192.608,24.2 C192.421332,24.7493361 192.328,25.3439968 192.328,25.984 C192.328,26.6026698 192.429332,27.1706641 192.632,27.688 C192.834668,28.2053359 193.117332,28.6506648 193.48,29.024 C193.842668,29.3973352 194.282664,29.687999 194.8,29.896 C195.317336,30.104001 195.88533,30.208 196.504,30.208 C197.602672,30.208 198.503996,29.9200029 199.208,29.344 C199.912004,28.7679971 200.338666,27.9306722 200.488,26.832 L198.296,26.832 C198.221333,27.3440026 198.037335,27.7519985 197.744,28.056 C197.450665,28.3600015 197.032003,28.512 196.488,28.512 C196.135998,28.512 195.837335,28.4320008 195.592,28.272 C195.346665,28.1119992 195.152001,27.9066679 195.008,27.656 C194.863999,27.4053321 194.76,27.1253349 194.696,26.816 C194.632,26.5066651 194.6,26.2026682 194.6,25.904 C194.6,25.5946651 194.632,25.2826682 194.696,24.968 C194.76,24.6533318 194.869333,24.3653346 195.024,24.104 C195.178667,23.8426654 195.378665,23.6293342 195.624,23.464 C195.869335,23.2986658 196.173332,23.216 196.536,23.216 C197.506672,23.216 198.066666,23.6906619 198.216,24.64 Z M204.648,21.728 L204.648,19.248 L202.376,19.248 L202.376,21.728 L201,21.728 L201,23.248 L202.376,23.248 L202.376,28.128 C202.376,28.5440021 202.445333,28.8799987 202.584,29.136 C202.722667,29.3920013 202.911999,29.5893326 203.152,29.728 C203.392001,29.8666674 203.669332,29.9599998 203.984,30.008 C204.298668,30.0560002 204.631998,30.08 204.984,30.08 C205.208001,30.08 205.437332,30.0746667 205.672,30.064 C205.906668,30.0533333 206.119999,30.0320002 206.312,30 L206.312,28.24 C206.205333,28.2613334 206.093334,28.2773333 205.976,28.288 C205.858666,28.2986667 205.736001,28.304 205.608,28.304 C205.223998,28.304 204.968001,28.2400006 204.84,28.112 C204.711999,27.9839994 204.648,27.7280019 204.648,27.344 L204.648,23.248 L206.312,23.248 L206.312,21.728 L204.648,21.728 Z M209.736,20.448 L209.736,18.576 L207.464,18.576 L207.464,20.448 L209.736,20.448 Z M207.464,21.728 L207.464,30 L209.736,30 L209.736,21.728 L207.464,21.728 Z M213.544,25.872 C213.544,26.2026683 213.576,26.5253318 213.64,26.84 C213.704,27.1546682 213.813333,27.4373321 213.968,27.688 C214.122667,27.9386679 214.327999,28.1386659 214.584,28.288 C214.840001,28.4373341 215.159998,28.512 215.544,28.512 C215.928002,28.512 216.250665,28.4373341 216.512,28.288 C216.773335,28.1386659 216.981333,27.9386679 217.136,27.688 C217.290667,27.4373321 217.4,27.1546682 217.464,26.84 C217.528,26.5253318 217.56,26.2026683 217.56,25.872 C217.56,25.5413317 217.528,25.2160016 217.464,24.896 C217.4,24.5759984 217.290667,24.2933346 217.136,24.048 C216.981333,23.8026654 216.773335,23.6026674 216.512,23.448 C216.250665,23.2933326 215.928002,23.216 215.544,23.216 C215.159998,23.216 214.840001,23.2933326 214.584,23.448 C214.327999,23.6026674 214.122667,23.8026654 213.968,24.048 C213.813333,24.2933346 213.704,24.5759984 213.64,24.896 C213.576,25.2160016 213.544,25.5413317 213.544,25.872 Z M211.272,25.872 C211.272,25.2106634 211.373332,24.6106694 211.576,24.072 C211.778668,23.5333306 212.066665,23.0746686 212.44,22.696 C212.813335,22.3173314 213.261331,22.024001 213.784,21.816 C214.306669,21.607999 214.89333,21.504 215.544,21.504 C216.19467,21.504 216.783997,21.607999 217.312,21.816 C217.840003,22.024001 218.290665,22.3173314 218.664,22.696 C219.037335,23.0746686 219.325332,23.5333306 219.528,24.072 C219.730668,24.6106694 219.832,25.2106634 219.832,25.872 C219.832,26.5333366 219.730668,27.130664 219.528,27.664 C219.325332,28.197336 219.037335,28.6533314 218.664,29.032 C218.290665,29.4106686 217.840003,29.7013323 217.312,29.904 C216.783997,30.1066677 216.19467,30.208 215.544,30.208 C214.89333,30.208 214.306669,30.1066677 213.784,29.904 C213.261331,29.7013323 212.813335,29.4106686 212.44,29.032 C212.066665,28.6533314 211.778668,28.197336 211.576,27.664 C211.373332,27.130664 211.272,26.5333366 211.272,25.872 Z M221.304,21.728 L221.304,30 L223.576,30 L223.576,25.664 C223.576,24.8213291 223.714665,24.2160018 223.992,23.848 C224.269335,23.4799982 224.71733,23.296 225.336,23.296 C225.880003,23.296 226.258666,23.4639983 226.472,23.8 C226.685334,24.1360017 226.792,24.6453299 226.792,25.328 L226.792,30 L229.064,30 L229.064,24.912 C229.064,24.3999974 229.018667,23.9333354 228.928,23.512 C228.837333,23.0906646 228.680001,22.7333348 228.456,22.44 C228.231999,22.1466652 227.925335,21.9173342 227.536,21.752 C227.146665,21.5866658 226.648003,21.504 226.04,21.504 C225.559998,21.504 225.090669,21.6133322 224.632,21.832 C224.173331,22.0506678 223.800001,22.3999976 223.512,22.88 L223.464,22.88 L223.464,21.728 L221.304,21.728 Z M230.792,21.728 L230.792,30 L233.064,30 L233.064,25.664 C233.064,24.8213291 233.202665,24.2160018 233.48,23.848 C233.757335,23.4799982 234.20533,23.296 234.824,23.296 C235.368003,23.296 235.746666,23.4639983 235.96,23.8 C236.173334,24.1360017 236.28,24.6453299 236.28,25.328 L236.28,30 L238.552,30 L238.552,24.912 C238.552,24.3999974 238.506667,23.9333354 238.416,23.512 C238.325333,23.0906646 238.168001,22.7333348 237.944,22.44 C237.719999,22.1466652 237.413335,21.9173342 237.024,21.752 C236.634665,21.5866658 236.136003,21.504 235.528,21.504 C235.047998,21.504 234.578669,21.6133322 234.12,21.832 C233.661331,22.0506678 233.288001,22.3999976 233,22.88 L232.952,22.88 L232.952,21.728 L230.792,21.728 Z M245.848,24.976 C245.741333,24.3999971 245.552001,23.9626682 245.28,23.664 C245.007999,23.3653318 244.594669,23.216 244.04,23.216 C243.677332,23.216 243.376001,23.2773327 243.136,23.4 C242.895999,23.5226673 242.704001,23.6746658 242.56,23.856 C242.415999,24.0373342 242.314667,24.2293323 242.256,24.432 C242.197333,24.6346677 242.162667,24.8159992 242.152,24.976 L245.848,24.976 Z M242.152,26.416 C242.184,27.1520037 242.370665,27.6853317 242.712,28.016 C243.053335,28.3466683 243.543997,28.512 244.184,28.512 C244.642669,28.512 245.037332,28.3973345 245.368,28.168 C245.698668,27.9386655 245.901333,27.6960013 245.976,27.44 L247.976,27.44 C247.655998,28.432005 247.165337,29.1413312 246.504,29.568 C245.842663,29.9946688 245.042671,30.208 244.104,30.208 C243.45333,30.208 242.866669,30.104001 242.344,29.896 C241.821331,29.687999 241.378668,29.3920019 241.016,29.008 C240.653332,28.6239981 240.373334,28.165336 240.176,27.632 C239.978666,27.098664 239.88,26.5120032 239.88,25.872 C239.88,25.2533302 239.981332,24.677336 240.184,24.144 C240.386668,23.610664 240.674665,23.1493353 241.048,22.76 C241.421335,22.3706647 241.866664,22.0640011 242.384,21.84 C242.901336,21.6159989 243.474664,21.504 244.104,21.504 C244.808004,21.504 245.421331,21.6399986 245.944,21.912 C246.466669,22.1840014 246.895998,22.549331 247.232,23.008 C247.568002,23.466669 247.810666,23.9893304 247.96,24.576 C248.109334,25.1626696 248.162667,25.7759968 248.12,26.416 L242.152,26.416 Z M249.528,18.576 L249.528,30 L251.8,30 L251.8,18.576 L249.528,18.576 Z M253.656,18.576 L253.656,30 L255.928,30 L255.928,18.576 L253.656,18.576 Z M263.288,24.976 C263.181333,24.3999971 262.992001,23.9626682 262.72,23.664 C262.447999,23.3653318 262.034669,23.216 261.48,23.216 C261.117332,23.216 260.816001,23.2773327 260.576,23.4 C260.335999,23.5226673 260.144001,23.6746658 260,23.856 C259.855999,24.0373342 259.754667,24.2293323 259.696,24.432 C259.637333,24.6346677 259.602667,24.8159992 259.592,24.976 L263.288,24.976 Z M259.592,26.416 C259.624,27.1520037 259.810665,27.6853317 260.152,28.016 C260.493335,28.3466683 260.983997,28.512 261.624,28.512 C262.082669,28.512 262.477332,28.3973345 262.808,28.168 C263.138668,27.9386655 263.341333,27.6960013 263.416,27.44 L265.416,27.44 C265.095998,28.432005 264.605337,29.1413312 263.944,29.568 C263.282663,29.9946688 262.482671,30.208 261.544,30.208 C260.89333,30.208 260.306669,30.104001 259.784,29.896 C259.261331,29.687999 258.818668,29.3920019 258.456,29.008 C258.093332,28.6239981 257.813334,28.165336 257.616,27.632 C257.418666,27.098664 257.32,26.5120032 257.32,25.872 C257.32,25.2533302 257.421332,24.677336 257.624,24.144 C257.826668,23.610664 258.114665,23.1493353 258.488,22.76 C258.861335,22.3706647 259.306664,22.0640011 259.824,21.84 C260.341336,21.6159989 260.914664,21.504 261.544,21.504 C262.248004,21.504 262.861331,21.6399986 263.384,21.912 C263.906669,22.1840014 264.335998,22.549331 264.672,23.008 C265.008002,23.466669 265.250666,23.9893304 265.4,24.576 C265.549334,25.1626696 265.602667,25.7759968 265.56,26.416 L259.592,26.416 Z M0,0 L0,29.56 L6.49988796,29.56 L6.49988796,0 L0,0 Z M12.2131653,0 L12.2131653,29.56 L18.2990476,29.56 L18.2990476,9.77053221 L18.3818487,9.77053221 L30.6778151,29.56 L37.1777031,29.56 L37.1777031,0 L31.0918207,0 L31.0918207,19.8308683 L31.0090196,19.8308683 L18.6716527,0 L12.2131653,0 Z M42.8909804,0 L42.8909804,29.56 L49.3908683,29.56 L49.3908683,17.3468347 L61.7696359,17.3468347 L61.7696359,12.2959664 L49.3908683,12.2959664 L49.3908683,5.46487395 L63.6740616,5.46487395 L63.6740616,0 L42.8909804,0 Z"/>
</svg>
