<svg xmlns="http://www.w3.org/2000/svg" width="299" height="346" viewBox="0 0 299 346">
  <g fill="#001559" fill-rule="evenodd">
    <path d="M30.8411215,113.222488 L30.8411215,77.7057584 L37.2875737,77.7057584 L37.2875737,113.222488 L30.8411215,113.222488 Z M45.5867464,88.1119339 L51.7286418,88.1119339 L51.7286418,91.0276739 C52.6930765,89.8714264 53.8436129,89.008443 55.1802855,88.4386979 C56.5169581,87.8689527 57.8620705,87.5840844 59.2156631,87.5840844 C61.3137315,87.5840844 63.0522258,88.0784147 64.4311982,89.0670901 C65.8101706,90.0557655 66.81689,91.3502406 67.4513865,92.9505542 C68.085883,94.5508677 68.4031265,96.2810237 68.4031265,98.1410741 L68.4031265,113.222488 L62.2866108,113.222488 L62.2866108,98.9202804 C62.2866108,97.2278022 61.8636195,95.8579208 61.0176241,94.8105952 C60.1716288,93.7632695 58.9787933,93.2396146 57.4390818,93.2396146 C55.6286518,93.2396146 54.2243206,93.7507018 53.2260461,94.7728917 C52.2277716,95.7950815 51.7286418,97.3618571 51.7286418,99.4732656 L51.7286418,113.222488 L45.5867464,113.222488 L45.5867464,88.1119339 Z M77.9078365,112.782613 C76.4442646,112.154218 75.2091299,111.307991 74.2023955,110.243909 C73.195661,109.179826 72.4808057,107.994271 72.057808,106.687209 L76.9814762,104.525539 C77.4213938,105.698544 78.0558808,106.678826 78.8849562,107.466415 C79.7140316,108.254004 80.8814877,108.647792 82.3873594,108.647792 C83.2841144,108.647792 84.0412689,108.49698 84.6588455,108.19535 C85.2764221,107.89372 85.7374826,107.512499 86.0420409,107.051676 C86.3465993,106.590853 86.4988761,106.125847 86.4988761,105.656645 C86.4988761,105.120415 86.3000702,104.676355 85.9024524,104.324454 C85.5048346,103.972552 85.0099348,103.691873 84.417738,103.482408 C83.8255413,103.272943 82.9710988,103.025778 81.854385,102.740905 C80.1793142,102.305218 78.8045924,101.861158 77.7301784,101.408714 C76.6557643,100.956269 75.7251834,100.248288 74.9384077,99.2847479 C74.1516321,98.3212083 73.7582501,97.0267333 73.7582501,95.4012839 C73.7582501,93.7088057 74.1897013,92.2760857 75.0526165,91.103081 C75.9155318,89.9300763 77.0618382,89.0503359 78.4915704,88.4638336 C79.9213025,87.8773312 81.4821404,87.5840844 83.1741311,87.5840844 C85.3229593,87.5840844 87.2179604,88.0616578 88.8591913,89.0168187 C90.5004223,89.9719797 91.8116954,91.3125364 92.7930499,93.0385291 L87.9962804,95.6275051 C87.4717633,94.6891013 86.8161267,93.9224705 86.0293511,93.3275895 C85.2425754,92.7327085 84.2231663,92.4352725 82.9710932,92.4352725 C81.9897387,92.4352725 81.1987449,92.6447345 80.5980882,93.0636648 C79.9974315,93.482595 79.6971077,93.9936823 79.6971077,94.5969418 C79.6971077,95.0661437 79.8832239,95.4599322 80.2554618,95.7783192 C80.6276997,96.0967062 81.0972201,96.3564391 81.664037,96.5575256 C82.2308539,96.7586121 83.0303075,97.0099665 84.0624218,97.3115963 C85.8051721,97.7975554 87.2433426,98.2960749 88.3769764,98.8071698 C89.5106101,99.3182647 90.4961799,100.101653 91.3337153,101.157357 C92.1712507,102.213061 92.5900121,103.612267 92.5900121,105.355017 C92.5900121,107.19831 92.1162618,108.748329 91.168747,110.00512 C90.2212323,111.26191 88.9945574,112.196111 87.4886857,112.807749 C85.982814,113.419387 84.3839068,113.725202 82.6919162,113.725202 C80.9660857,113.725202 79.3714084,113.411009 77.9078365,112.782613 Z M102.856114,112.820317 C101.663261,112.217057 100.749599,111.358263 100.115103,110.243909 C99.4806064,109.129554 99.1633629,107.809944 99.1633629,106.285037 L99.1633629,93.2396146 L95.0772259,93.2396146 L95.0772259,88.1119339 L99.2648819,88.1119339 L99.2648819,81.8782829 L105.305258,77.5046729 L105.305258,88.1119339 L111.700951,88.1119339 L111.700951,93.2396146 L105.305258,93.2396146 L105.305258,105.204203 C105.305258,106.343693 105.559053,107.148027 106.06665,107.617229 C106.574248,108.086431 107.276413,108.321028 108.173168,108.321028 C108.765365,108.321028 109.374472,108.233054 110.000509,108.057104 C110.626546,107.881153 111.193354,107.667502 111.700951,107.416144 L111.700951,112.971131 C111.176434,113.172217 110.486958,113.348166 109.632503,113.49898 C108.778048,113.649795 107.944755,113.725202 107.132599,113.725202 C105.474448,113.725202 104.048968,113.423576 102.856114,112.820317 Z M117.106834,83.3612886 L117.106834,77.7057584 L123.553286,77.7057584 L123.553286,83.3612886 L117.106834,83.3612886 Z M117.259113,113.222488 L117.259113,88.1119339 L123.401008,88.1119339 L123.401008,113.222488 L117.259113,113.222488 Z M135.494451,112.820317 C134.301597,112.217057 133.387936,111.358263 132.75344,110.243909 C132.118943,109.129554 131.8017,107.809944 131.8017,106.285037 L131.8017,93.2396146 L127.715563,93.2396146 L127.715563,88.1119339 L131.903219,88.1119339 L131.903219,81.8782829 L137.943595,77.5046729 L137.943595,88.1119339 L144.339288,88.1119339 L144.339288,93.2396146 L137.943595,93.2396146 L137.943595,105.204203 C137.943595,106.343693 138.19739,107.148027 138.704987,107.617229 C139.212584,108.086431 139.91475,108.321028 140.811505,108.321028 C141.403702,108.321028 142.012809,108.233054 142.638846,108.057104 C143.264882,107.881153 143.831691,107.667502 144.339288,107.416144 L144.339288,112.971131 C143.814771,113.172217 143.125295,113.348166 142.27084,113.49898 C141.416384,113.649795 140.583091,113.725202 139.770936,113.725202 C138.112785,113.725202 136.687304,113.423576 135.494451,112.820317 Z M151.420233,110.457562 C149.897442,108.279125 149.136057,105.237737 149.136057,101.333307 L149.136057,88.1119339 L155.404851,88.1119339 L155.404851,101.534392 C155.404851,103.009027 155.531749,104.223906 155.785547,105.179067 C156.039346,106.134228 156.500407,106.871534 157.168743,107.391008 C157.837079,107.910481 158.78035,108.170214 159.998583,108.170214 C161.724414,108.170214 163.132975,107.537639 164.224309,106.27247 C165.315643,105.0073 165.861301,102.724165 165.861301,99.4229942 L165.861301,88.1119339 L172.155475,88.1119339 L172.155475,113.222488 L165.861301,113.222488 L165.861301,110.281612 C164.964546,111.43786 163.877459,112.300843 162.600006,112.870588 C161.322553,113.440333 159.913992,113.725202 158.37428,113.725202 C155.261017,113.725202 152.943025,112.635999 151.420233,110.457562 Z M184.248918,112.820317 C183.056065,112.217057 182.142403,111.358263 181.507907,110.243909 C180.87341,109.129554 180.556167,107.809944 180.556167,106.285037 L180.556167,93.2396146 L176.47003,93.2396146 L176.47003,88.1119339 L180.657686,88.1119339 L180.657686,81.8782829 L186.698062,77.5046729 L186.698062,88.1119339 L193.093755,88.1119339 L193.093755,93.2396146 L186.698062,93.2396146 L186.698062,105.204203 C186.698062,106.343693 186.951857,107.148027 187.459454,107.617229 C187.967052,108.086431 188.669217,108.321028 189.565972,108.321028 C190.158169,108.321028 190.767276,108.233054 191.393313,108.057104 C192.01935,107.881153 192.586158,107.667502 193.093755,107.416144 L193.093755,112.971131 C192.569238,113.172217 191.879762,113.348166 191.025307,113.49898 C190.170852,113.649795 189.337559,113.725202 188.525403,113.725202 C186.867252,113.725202 185.441772,113.423576 184.248918,112.820317 Z M92.691531,162.588982 C90.0181858,164.331732 86.8119115,165.203094 83.0726122,165.203094 C79.2825531,165.203094 76.0889686,164.377814 73.4917629,162.727228 C70.8945573,161.076643 68.957257,158.868914 67.6798041,156.103974 C66.4023511,153.339035 65.7636342,150.28089 65.7636342,146.929448 C65.7636342,143.578006 66.4023511,140.519861 67.6798041,137.754921 C68.957257,134.989981 70.8945573,132.782252 73.4917629,131.131667 C76.0889686,129.481081 79.2825531,128.655801 83.0726122,128.655801 C86.8626713,128.655801 90.0562557,129.485271 92.6534614,131.144235 C95.2506671,132.803198 97.1879673,135.019306 98.4654203,137.792624 C99.7428732,140.565943 100.38159,143.628277 100.38159,146.979719 C100.38159,149.2587 100.077036,151.441293 99.4679197,153.527566 C98.8588031,155.613839 97.987441,157.436158 96.8538072,158.994579 L101.980513,163.820631 L97.8436168,167.691527 L92.691531,162.588982 Z M88.1231791,158.165101 L83.2248906,153.741219 L87.3871668,149.970866 L92.1585566,154.344476 C93.3429501,152.233068 93.9351379,149.761416 93.9351379,146.929448 C93.9351379,144.600195 93.5544457,142.518143 92.7930499,140.683229 C92.0316541,138.848314 90.8388186,137.390459 89.2145076,136.309619 C87.5901965,135.228779 85.5429185,134.688367 83.0726122,134.688367 C80.6023058,134.688367 78.5550278,135.228779 76.9307168,136.309619 C75.3064057,137.390459 74.1135702,138.848314 73.3521744,140.683229 C72.5907786,142.518143 72.2100864,144.600195 72.2100864,146.929448 C72.2100864,149.2587 72.5907786,151.344941 73.3521744,153.188234 C74.1135702,155.031527 75.3064057,156.493572 76.9307168,157.574412 C78.5550278,158.655252 80.6023058,159.195664 83.0726122,159.195664 C84.9338019,159.195664 86.6173074,158.852146 88.1231791,158.165101 Z M108.807662,161.935454 C107.28487,159.757017 106.523486,156.715629 106.523486,152.811199 L106.523486,139.589826 L112.79228,139.589826 L112.79228,153.012284 C112.79228,154.486919 112.919177,155.701798 113.172976,156.656959 C113.426774,157.61212 113.887835,158.349427 114.556171,158.8689 C115.224507,159.388374 116.167778,159.648107 117.386011,159.648107 C119.111842,159.648107 120.520403,159.015531 121.611737,157.750362 C122.703071,156.485193 123.24873,154.202057 123.24873,150.900887 L123.24873,139.589826 L129.542903,139.589826 L129.542903,164.70038 L123.24873,164.70038 L123.24873,161.759504 C122.351975,162.915752 121.264887,163.778735 119.987434,164.34848 C118.709981,164.918226 117.30142,165.203094 115.761708,165.203094 C112.648446,165.203094 110.330453,164.113892 108.807662,161.935454 Z M140.380049,163.41846 C138.45118,162.228698 137.00878,160.649355 136.052805,158.680382 C135.09683,156.71141 134.61885,154.56233 134.61885,152.233078 C134.61885,149.954097 135.075681,147.809207 135.989356,145.798342 C136.903031,143.787476 138.294672,142.162051 140.164322,140.922018 C142.033971,139.681984 144.330814,139.061977 147.054919,139.061977 C149.829784,139.061977 152.097017,139.694552 153.856688,140.959721 C155.616358,142.224891 156.881102,143.816802 157.650958,145.735502 C158.420814,147.654203 158.805736,149.65247 158.805736,151.730364 C158.805736,152.233081 158.784586,152.714843 158.742286,153.175666 C158.699987,153.63649 158.644998,153.959061 158.577318,154.14339 L141.166821,154.14339 C141.759018,157.81322 143.873975,159.648107 147.511754,159.648107 C148.713068,159.648107 149.812845,159.438645 150.81112,159.019714 C151.809394,158.600784 152.739975,157.922127 153.60289,156.983723 L157.866686,160.67867 C156.479253,162.203576 154.931105,163.33886 153.222194,164.084556 C151.513284,164.830252 149.592903,165.203094 147.460995,165.203094 C144.66921,165.203094 142.308919,164.608222 140.380049,163.41846 Z M152.7146,149.719509 C152.511561,147.943245 151.915143,146.581742 150.925329,145.63496 C149.935514,144.688177 148.628471,144.214793 147.00416,144.214793 C143.789378,144.214793 141.843617,146.04968 141.166821,149.719509 L152.7146,149.719509 Z M143.552516,136.447865 L149.262956,129.183651 L155.861687,129.183651 L148.070109,136.447865 L143.552516,136.447865 Z M173.61481,164.461591 C172.337357,163.967253 171.275649,163.209001 170.429653,162.186811 L170.429653,164.70038 L164.033961,164.70038 L164.033961,129.183651 L170.429653,129.183651 L170.429653,142.103395 C171.275649,141.064448 172.316207,140.297817 173.551361,139.80348 C174.786514,139.309142 176.123166,139.061977 177.561358,139.061977 C179.862466,139.061977 181.837835,139.65266 183.487526,140.834043 C185.137217,142.015426 186.389271,143.598959 187.243727,145.584688 C188.098182,147.570418 188.525403,149.753011 188.525403,152.132535 C188.525403,154.495302 188.098182,156.673707 187.243727,158.667815 C186.389271,160.661923 185.145677,162.249644 183.512906,163.431028 C181.880135,164.612411 179.930145,165.203094 177.662877,165.203094 C176.241605,165.203094 174.892263,164.955929 173.61481,164.461591 Z M180.733825,157.499005 C181.765939,156.133292 182.281989,154.344487 182.281989,152.132535 C182.281989,149.920584 181.761709,148.115021 180.721135,146.715794 C179.680561,145.316567 178.145102,144.616964 176.114714,144.616964 C174.067405,144.616964 172.515027,145.312378 171.457533,146.703226 C170.400038,148.094075 169.871299,149.903826 169.871299,152.132535 C169.871299,154.344487 170.400038,156.133292 171.457533,157.499005 C172.515027,158.864718 174.067405,159.547564 176.114714,159.547564 C178.162022,159.547564 179.701711,158.864718 180.733825,157.499005 Z M197.306791,163.41846 C195.377921,162.228698 193.935521,160.649355 192.979546,158.680382 C192.023572,156.71141 191.545591,154.56233 191.545591,152.233078 C191.545591,149.954097 192.002422,147.809207 192.916097,145.798342 C193.829772,143.787476 195.221413,142.162051 197.091063,140.922018 C198.960713,139.681984 201.257556,139.061977 203.981661,139.061977 C206.756525,139.061977 209.023759,139.694552 210.783429,140.959721 C212.543099,142.224891 213.807843,143.816802 214.577699,145.735502 C215.347555,147.654203 215.732477,149.65247 215.732477,151.730364 C215.732477,152.233081 215.711327,152.714843 215.669028,153.175666 C215.626728,153.63649 215.571739,153.959061 215.504059,154.14339 L198.093562,154.14339 C198.685759,157.81322 200.800716,159.648107 204.438496,159.648107 C205.639809,159.648107 206.739587,159.438645 207.737861,159.019714 C208.736136,158.600784 209.666716,157.922127 210.529632,156.983723 L214.793427,160.67867 C213.405995,162.203576 211.857846,163.33886 210.148936,164.084556 C208.440025,164.830252 206.519645,165.203094 204.387736,165.203094 C201.595952,165.203094 199.23566,164.608222 197.306791,163.41846 Z M209.641341,149.719509 C209.438302,147.943245 208.841884,146.581742 207.85207,145.63496 C206.862255,144.688177 205.555212,144.214793 203.930901,144.214793 C200.716119,144.214793 198.770359,146.04968 198.093562,149.719509 L209.641341,149.719509 Z M200.479257,136.447865 L206.189697,129.183651 L212.788428,129.183651 L204.99685,136.447865 L200.479257,136.447865 Z M224.221998,163.393324 C222.369268,162.186805 220.981856,160.590705 220.059721,158.604975 C219.137587,156.619246 218.676526,154.478544 218.676526,152.182807 C218.676526,149.903826 219.137587,147.763125 220.059721,145.760638 C220.981856,143.758151 222.360808,142.141105 224.196618,140.90945 C226.032428,139.677795 228.270052,139.061977 230.909557,139.061977 C233.481383,139.061977 235.714777,139.686173 237.609807,140.934586 C239.504836,142.182998 240.926087,144.030452 241.873602,146.477005 L235.985504,148.739217 C235.647106,147.499184 235.025309,146.502145 234.120094,145.74807 C233.214879,144.993996 232.144711,144.616964 230.909557,144.616964 C229.555965,144.616964 228.435038,144.97305 227.546743,145.685231 C226.658448,146.397412 226.007041,147.327424 225.592503,148.475292 C225.177966,149.623161 224.9707,150.858987 224.9707,152.182807 C224.9707,153.540141 225.173736,154.780156 225.579813,155.902889 C225.985891,157.025622 226.633068,157.930498 227.521363,158.617543 C228.409658,159.304589 229.539045,159.648107 230.909557,159.648107 C232.127791,159.648107 233.193729,159.283643 234.107404,158.554704 C235.021079,157.825765 235.647106,156.858051 235.985504,155.651532 L241.619805,157.76293 C240.773809,160.108939 239.411777,161.935448 237.533668,163.24251 C235.655558,164.549573 233.464463,165.203094 230.960317,165.203094 C228.320811,165.203094 226.074727,164.599843 224.221998,163.393324 Z M250.223534,163.431028 C248.243905,162.249644 246.712677,160.657733 245.629803,158.655247 C244.546929,156.65276 244.0055,154.461788 244.0055,152.082264 C244.0055,149.719497 244.546929,147.545282 245.629803,145.559552 C246.712677,143.573823 248.243905,141.99448 250.223534,140.821475 C252.203163,139.64847 254.461937,139.061977 256.999923,139.061977 C259.537909,139.061977 261.796683,139.64847 263.776312,140.821475 C265.755941,141.99448 267.287169,143.573823 268.370043,145.559552 C269.452917,147.545282 269.994346,149.719497 269.994346,152.082264 C269.994346,154.461788 269.452917,156.65276 268.370043,158.655247 C267.287169,160.657733 265.755941,162.249644 263.776312,163.431028 C261.796683,164.612411 259.537909,165.203094 256.999923,165.203094 C254.461937,165.203094 252.203163,164.612411 250.223534,163.431028 Z M260.705364,158.856332 C261.686719,158.144151 262.405804,157.197383 262.862641,156.015999 C263.319479,154.834616 263.547894,153.523384 263.547894,152.082264 C263.547894,149.836798 263.010695,147.989343 261.936281,146.539844 C260.861867,145.090346 259.216431,144.365607 256.999923,144.365607 C255.510971,144.365607 254.275837,144.713314 253.294482,145.408738 C252.313127,146.104163 251.594042,147.029985 251.137205,148.186232 C250.680367,149.34248 250.451952,150.641144 250.451952,152.082264 C250.451952,153.523384 250.680367,154.834616 251.137205,156.015999 C251.594042,157.197383 252.313127,158.144151 253.294482,158.856332 C254.275837,159.568514 255.510971,159.924599 256.999923,159.924599 C258.488875,159.924599 259.724009,159.568514 260.705364,158.856332 Z M274.867255,134.839181 L274.867255,129.183651 L281.313707,129.183651 L281.313707,134.839181 L274.867255,134.839181 Z M275.019533,164.70038 L275.019533,139.589826 L281.161429,139.589826 L281.161429,164.70038 L275.019533,164.70038 Z M291.376771,164.260506 C289.913199,163.63211 288.678065,162.785884 287.67133,161.721801 C286.664596,160.657718 285.949741,159.472163 285.526743,158.165101 L290.450411,156.003432 C290.890329,157.176436 291.524816,158.156718 292.353891,158.944307 C293.182967,159.731896 294.350423,160.125685 295.856294,160.125685 C296.753049,160.125685 297.510204,159.974872 298.12778,159.673242 C298.745357,159.371612 299.206418,158.990392 299.510976,158.529568 C299.815534,158.068745 299.967811,157.603739 299.967811,157.134538 C299.967811,156.598307 299.769005,156.154247 299.371387,155.802346 C298.97377,155.450445 298.47887,155.169766 297.886673,154.9603 C297.294476,154.750835 296.440034,154.50367 295.32332,154.218798 C293.648249,153.78311 292.273527,153.339051 291.199113,152.886606 C290.124699,152.434161 289.194118,151.72618 288.407343,150.76264 C287.620567,149.799101 287.227185,148.504626 287.227185,146.879176 C287.227185,145.186698 287.658636,143.753978 288.521551,142.580973 C289.384467,141.407969 290.530773,140.528228 291.960505,139.941726 C293.390237,139.355224 294.951075,139.061977 296.643066,139.061977 C298.791894,139.061977 300.686895,139.53955 302.328126,140.494711 C303.969357,141.449872 305.28063,142.790429 306.261985,144.516421 L301.465215,147.105397 C300.940698,146.166994 300.285062,145.400363 299.498286,144.805482 C298.71151,144.210601 297.692101,143.913165 296.440028,143.913165 C295.458674,143.913165 294.66768,144.122627 294.067023,144.541557 C293.466366,144.960487 293.166043,145.471575 293.166043,146.074834 C293.166043,146.544036 293.352159,146.937825 293.724397,147.256212 C294.096635,147.574599 294.566155,147.834331 295.132972,148.035418 C295.699789,148.236504 296.499242,148.487859 297.531357,148.789489 C299.274107,149.275448 300.712278,149.773967 301.845911,150.285062 C302.979545,150.796157 303.965115,151.579545 304.80265,152.635249 C305.640186,153.690953 306.058947,155.090159 306.058947,156.832909 C306.058947,158.676202 305.585197,160.226221 304.637682,161.483012 C303.690167,162.739803 302.463492,163.674003 300.957621,164.285641 C299.451749,164.897279 297.852842,165.203094 296.160851,165.203094 C294.435021,165.203094 292.840343,164.888901 291.376771,164.260506 Z M346.387343,129.183651 L346.387343,164.70038 L340.626143,164.70038 L340.346966,161.885183 C339.517891,163.007916 338.456183,163.841575 337.16181,164.386184 C335.867437,164.930793 334.475796,165.203094 332.986844,165.203094 C330.685737,165.203094 328.706137,164.612411 327.047986,163.431028 C325.389835,162.249644 324.133551,160.666112 323.279096,158.680382 C322.424641,156.694653 321.997419,154.512059 321.997419,152.132535 C321.997419,149.769769 322.424641,147.595553 323.279096,145.609824 C324.133551,143.624094 325.381376,142.036373 327.022607,140.846611 C328.663837,139.656849 330.618057,139.061977 332.885325,139.061977 C334.306597,139.061977 335.655939,139.313331 336.933392,139.816047 C338.210845,140.318764 339.264094,141.081205 340.093169,142.103395 L340.093169,129.183651 L346.387343,129.183651 Z M339.09067,157.58698 C340.114324,156.212889 340.626143,154.394759 340.626143,152.132535 C340.626143,149.887069 340.110094,148.073128 339.07798,146.690659 C338.045865,145.308189 336.514637,144.616964 334.484248,144.616964 C332.453859,144.616964 330.914171,145.316567 329.865137,146.715794 C328.816102,148.115021 328.291593,149.920584 328.291593,152.132535 C328.291593,154.361244 328.811873,156.170996 329.852447,157.561844 C330.893021,158.952693 332.436939,159.648107 334.484248,159.648107 C336.531557,159.648107 338.067015,158.961071 339.09067,157.58698 Z M357.275248,163.41846 C355.346379,162.228698 353.903979,160.649355 352.948004,158.680382 C351.992029,156.71141 351.514049,154.56233 351.514049,152.233078 C351.514049,149.954097 351.97088,147.809207 352.884555,145.798342 C353.79823,143.787476 355.189871,142.162051 357.059521,140.922018 C358.92917,139.681984 361.226013,139.061977 363.950118,139.061977 C366.724983,139.061977 368.992216,139.694552 370.751887,140.959721 C372.511557,142.224891 373.776301,143.816802 374.546157,145.735502 C375.316012,147.654203 375.700935,149.65247 375.700935,151.730364 C375.700935,152.233081 375.679785,152.714843 375.637485,153.175666 C375.595185,153.63649 375.540197,153.959061 375.472517,154.14339 L358.06202,154.14339 C358.654217,157.81322 360.769173,159.648107 364.406953,159.648107 C365.608267,159.648107 366.708044,159.438645 367.706319,159.019714 C368.704593,158.600784 369.635174,157.922127 370.498089,156.983723 L374.761884,160.67867 C373.374452,162.203576 371.826304,163.33886 370.117393,164.084556 C368.408483,164.830252 366.488102,165.203094 364.356194,165.203094 C361.564409,165.203094 359.204118,164.608222 357.275248,163.41846 Z M369.609799,149.719509 C369.40676,147.943245 368.810342,146.581742 367.820527,145.63496 C366.830713,144.688177 365.52367,144.214793 363.899359,144.214793 C360.684576,144.214793 358.738816,146.04968 358.06202,149.719509 L369.609799,149.719509 Z M55.8147788,216.178272 L55.8147788,180.661543 L64.4946476,180.661543 L74.0120475,205.922911 L83.5294474,180.661543 L92.2093161,180.661543 L92.2093161,216.178272 L86.0166612,216.178272 L86.0166612,189.609849 L77.1337546,213.086583 L70.8903403,213.086583 L62.0074337,189.609849 L62.0074337,216.178272 L55.8147788,216.178272 Z M103.985512,214.896352 C102.056643,213.70659 100.614242,212.127247 99.6582677,210.158275 C98.702293,208.189303 98.2243128,206.040223 98.2243128,203.71097 C98.2243128,201.43199 98.6811434,199.287099 99.5948184,197.276234 C100.508493,195.265369 101.900135,193.639944 103.769784,192.39991 C105.639434,191.159876 107.936277,190.539869 110.660382,190.539869 C113.435247,190.539869 115.70248,191.172444 117.46215,192.437614 C119.221821,193.702783 120.486565,195.294694 121.256421,197.213395 C122.026276,199.132095 122.411198,201.130363 122.411198,203.208257 C122.411198,203.710973 122.390049,204.192735 122.347749,204.653559 C122.305449,205.114382 122.25046,205.436953 122.182781,205.621283 L104.772284,205.621283 C105.364481,209.291112 107.479437,211.125999 111.117217,211.125999 C112.318531,211.125999 113.418308,210.916537 114.416583,210.497607 C115.414857,210.078676 116.345438,209.400019 117.208353,208.461616 L121.472148,212.156562 C120.084716,213.681468 118.536568,214.816752 116.827657,215.562448 C115.118747,216.308144 113.198366,216.680986 111.066458,216.680986 C108.274673,216.680986 105.914382,216.086114 103.985512,214.896352 Z M116.320063,201.197401 C116.117024,199.421137 115.520606,198.059634 114.530791,197.112852 C113.540977,196.166069 112.233934,195.692685 110.609623,195.692685 C107.39484,195.692685 105.44908,197.527572 104.772284,201.197401 L116.320063,201.197401 Z M107.157979,187.925757 L112.868419,180.661543 L119.467149,180.661543 L111.675571,187.925757 L107.157979,187.925757 Z M149.897449,180.661543 L149.897449,216.178272 L144.13625,216.178272 L143.857073,213.363075 C143.027997,214.485808 141.966289,215.319467 140.671916,215.864076 C139.377544,216.408686 137.985902,216.680986 136.49695,216.680986 C134.195843,216.680986 132.216244,216.090303 130.558093,214.90892 C128.899942,213.727537 127.643658,212.144004 126.789202,210.158275 C125.934747,208.172545 125.507526,205.989951 125.507526,203.610428 C125.507526,201.247661 125.934747,199.073446 126.789202,197.087716 C127.643658,195.101987 128.891482,193.514265 130.532713,192.324503 C132.173944,191.134741 134.128164,190.539869 136.395431,190.539869 C137.816704,190.539869 139.166046,190.791223 140.443499,191.29394 C141.720952,191.796656 142.7742,192.559098 143.603276,193.581287 L143.603276,180.661543 L149.897449,180.661543 Z M142.600776,209.064872 C143.62443,207.690781 144.13625,205.872651 144.13625,203.610428 C144.13625,201.364961 143.620201,199.551021 142.588086,198.168551 C141.555972,196.786081 140.024743,196.094856 137.994355,196.094856 C135.963966,196.094856 134.424277,196.794459 133.375243,198.193687 C132.326209,199.592914 131.8017,201.398476 131.8017,203.610428 C131.8017,205.839137 132.321979,207.648888 133.362553,209.039737 C134.403128,210.430585 135.947046,211.125999 137.994355,211.125999 C140.041663,211.125999 141.577122,210.438963 142.600776,209.064872 Z M160.785355,214.896352 C158.856486,213.70659 157.414085,212.127247 156.45811,210.158275 C155.502136,208.189303 155.024155,206.040223 155.024155,203.71097 C155.024155,201.43199 155.480986,199.287099 156.394661,197.276234 C157.308336,195.265369 158.699977,193.639944 160.569627,192.39991 C162.439277,191.159876 164.73612,190.539869 167.460225,190.539869 C170.235089,190.539869 172.502323,191.172444 174.261993,192.437614 C176.021663,193.702783 177.286407,195.294694 178.056263,197.213395 C178.826119,199.132095 179.211041,201.130363 179.211041,203.208257 C179.211041,203.710973 179.189892,204.192735 179.147592,204.653559 C179.105292,205.114382 179.050303,205.436953 178.982623,205.621283 L161.572127,205.621283 C162.164323,209.291112 164.27928,211.125999 167.91706,211.125999 C169.118373,211.125999 170.218151,210.916537 171.216425,210.497607 C172.2147,210.078676 173.145281,209.400019 174.008196,208.461616 L178.271991,212.156562 C176.884559,213.681468 175.33641,214.816752 173.6275,215.562448 C171.918589,216.308144 169.998209,216.680986 167.8663,216.680986 C165.074516,216.680986 162.714224,216.086114 160.785355,214.896352 Z M173.119905,201.197401 C172.916866,199.421137 172.320448,198.059634 171.330634,197.112852 C170.340819,196.166069 169.033776,195.692685 167.409465,195.692685 C164.194683,195.692685 162.248923,197.527572 161.572127,201.197401 L173.119905,201.197401 Z M187.700562,214.871217 C185.847832,213.664697 184.46042,212.068597 183.538286,210.082868 C182.616151,208.097138 182.15509,205.956437 182.15509,203.660699 C182.15509,201.381718 182.616151,199.241017 183.538286,197.23853 C184.46042,195.236044 185.839372,193.618997 187.675182,192.387342 C189.510992,191.155687 191.748616,190.539869 194.388121,190.539869 C196.959947,190.539869 199.193341,191.164066 201.088371,192.412478 C202.983401,193.66089 204.404651,195.508345 205.352166,197.954897 L199.464068,200.21711 C199.12567,198.977076 198.503873,197.980037 197.598658,197.225962 C196.693443,196.471888 195.623275,196.094856 194.388121,196.094856 C193.034529,196.094856 191.913602,196.450942 191.025307,197.163123 C190.137012,197.875305 189.485605,198.805316 189.071067,199.953185 C188.65653,201.101054 188.449264,202.336879 188.449264,203.660699 C188.449264,205.018033 188.6523,206.258048 189.058378,207.380781 C189.464455,208.503514 190.111632,209.40839 190.999927,210.095436 C191.888222,210.782481 193.017609,211.125999 194.388121,211.125999 C195.606355,211.125999 196.672293,210.761535 197.585968,210.032596 C198.499643,209.303658 199.12567,208.335943 199.464068,207.129424 L205.098369,209.240822 C204.252373,211.586832 202.890341,213.41334 201.012232,214.720402 C199.134122,216.027465 196.943027,216.680986 194.438881,216.680986 C191.799375,216.680986 189.553292,216.077736 187.700562,214.871217 Z M209.71748,186.317073 L209.71748,180.661543 L216.163932,180.661543 L216.163932,186.317073 L209.71748,186.317073 Z M209.869759,216.178272 L209.869759,191.067719 L216.011654,191.067719 L216.011654,216.178272 L209.869759,216.178272 Z M223.371777,191.067719 L229.513672,191.067719 L229.513672,193.983458 C230.478107,192.827211 231.628643,191.964228 232.965316,191.394482 C234.301988,190.824737 235.647101,190.539869 237.000693,190.539869 C239.098762,190.539869 240.837256,191.034199 242.216228,192.022875 C243.595201,193.01155 244.60192,194.306025 245.236417,195.906339 C245.870913,197.506652 246.188157,199.236808 246.188157,201.096859 L246.188157,216.178272 L240.071641,216.178272 L240.071641,201.876065 C240.071641,200.183587 239.64865,198.813705 238.802654,197.76638 C237.956659,196.719054 236.763823,196.195399 235.224112,196.195399 C233.413682,196.195399 232.009351,196.706486 231.011076,197.728676 C230.012802,198.750866 229.513672,200.317642 229.513672,202.42905 L229.513672,216.178272 L223.371777,216.178272 L223.371777,191.067719 Z M256.31467,214.896352 C254.385801,213.70659 252.9434,212.127247 251.987426,210.158275 C251.031451,208.189303 250.553471,206.040223 250.553471,203.71097 C250.553471,201.43199 251.010301,199.287099 251.923976,197.276234 C252.837651,195.265369 254.229293,193.639944 256.098942,192.39991 C257.968592,191.159876 260.265435,190.539869 262.98954,190.539869 C265.764405,190.539869 268.031638,191.172444 269.791308,192.437614 C271.550979,193.702783 272.815723,195.294694 273.585579,197.213395 C274.355434,199.132095 274.740356,201.130363 274.740356,203.208257 C274.740356,203.710973 274.719207,204.192735 274.676907,204.653559 C274.634607,205.114382 274.579618,205.436953 274.511939,205.621283 L257.101442,205.621283 C257.693639,209.291112 259.808595,211.125999 263.446375,211.125999 C264.647689,211.125999 265.747466,210.916537 266.74574,210.497607 C267.744015,210.078676 268.674596,209.400019 269.537511,208.461616 L273.801306,212.156562 C272.413874,213.681468 270.865726,214.816752 269.156815,215.562448 C267.447905,216.308144 265.527524,216.680986 263.395616,216.680986 C260.603831,216.680986 258.24354,216.086114 256.31467,214.896352 Z M268.64922,201.197401 C268.446182,199.421137 267.849764,198.059634 266.859949,197.112852 C265.870135,196.166069 264.563092,195.692685 262.938781,195.692685 C259.723998,195.692685 257.778238,197.527572 257.101442,201.197401 L268.64922,201.197401 Z M30.8411215,267.656165 L30.8411215,232.139435 L56.271614,232.139435 L56.271614,237.996051 L37.2875737,237.996051 L37.2875737,246.969492 L54.0381975,246.969492 L54.0381975,252.826108 L37.2875737,252.826108 L37.2875737,267.656165 L30.8411215,267.656165 Z M65.0783814,266.386812 C63.0987523,265.205429 61.5675238,263.613518 60.4846497,261.611031 C59.4017757,259.608545 58.8603468,257.417572 58.8603468,255.038049 C58.8603468,252.675282 59.4017757,250.501066 60.4846497,248.515337 C61.5675238,246.529608 63.0987523,244.950264 65.0783814,243.77726 C67.0580105,242.604255 69.3167842,242.017761 71.8547702,242.017761 C74.3927561,242.017761 76.6515298,242.604255 78.6311589,243.77726 C80.610788,244.950264 82.1420165,246.529608 83.2248906,248.515337 C84.3077646,250.501066 84.8491935,252.675282 84.8491935,255.038049 C84.8491935,257.417572 84.3077646,259.608545 83.2248906,261.611031 C82.1420165,263.613518 80.610788,265.205429 78.6311589,266.386812 C76.6515298,267.568196 74.3927561,268.158879 71.8547702,268.158879 C69.3167842,268.158879 67.0580105,267.568196 65.0783814,266.386812 Z M75.5602112,261.812117 C76.5415658,261.099935 77.260651,260.153167 77.7174885,258.971784 C78.174326,257.790401 78.4027413,256.479169 78.4027413,255.038049 C78.4027413,252.792582 77.8655423,250.945128 76.7911282,249.495629 C75.7167142,248.04613 74.0712779,247.321392 71.8547702,247.321392 C70.3658184,247.321392 69.1306837,247.669099 68.1493291,248.364523 C67.1679745,249.059947 66.4488893,249.985769 65.9920518,251.142017 C65.5352143,252.298264 65.306799,253.596928 65.306799,255.038049 C65.306799,256.479169 65.5352143,257.790401 65.9920518,258.971784 C66.4488893,260.153167 67.1679745,261.099935 68.1493291,261.812117 C69.1306837,262.524298 70.3658184,262.880384 71.8547702,262.880384 C73.3437219,262.880384 74.5788566,262.524298 75.5602112,261.812117 Z M89.8743806,242.545611 L96.016276,242.545611 L96.016276,245.461351 C96.9807107,244.305103 98.1312471,243.44212 99.4679197,242.872375 C100.804592,242.30263 102.149705,242.017761 103.503297,242.017761 C105.601366,242.017761 107.33986,242.512092 108.718832,243.500767 C110.097805,244.489442 111.104524,245.783917 111.739021,247.384231 C112.373517,248.984545 112.690761,250.714701 112.690761,252.574751 L112.690761,267.656165 L106.574245,267.656165 L106.574245,253.353957 C106.574245,251.661479 106.151254,250.291598 105.305258,249.244272 C104.459263,248.196946 103.266427,247.673291 101.726716,247.673291 C99.916286,247.673291 98.5119548,248.184379 97.5136803,249.206569 C96.5154058,250.228758 96.016276,251.795534 96.016276,253.906943 L96.016276,267.656165 L89.8743806,267.656165 L89.8743806,242.545611 Z M122.652306,266.349109 C120.799576,265.14259 119.412165,263.546489 118.49003,261.56076 C117.567895,259.575031 117.106834,257.434329 117.106834,255.138591 C117.106834,252.859611 117.567895,250.718909 118.49003,248.716423 C119.412165,246.713936 120.791116,245.096889 122.626926,243.865235 C124.462736,242.63358 126.70036,242.017761 129.339866,242.017761 C131.911691,242.017761 134.145086,242.641958 136.040115,243.89037 C137.935145,245.138782 139.356395,246.986237 140.30391,249.43279 L134.415812,251.695002 C134.077414,250.454968 133.455617,249.457929 132.550402,248.703855 C131.645187,247.94978 130.575019,247.572749 129.339866,247.572749 C127.986273,247.572749 126.865346,247.928834 125.977051,248.641016 C125.088756,249.353197 124.437349,250.283208 124.022811,251.431077 C123.608274,252.578946 123.401008,253.814772 123.401008,255.138591 C123.401008,256.495925 123.604044,257.73594 124.010122,258.858673 C124.416199,259.981406 125.063376,260.886282 125.951671,261.573328 C126.839966,262.260373 127.969353,262.603891 129.339866,262.603891 C130.558099,262.603891 131.624037,262.239427 132.537712,261.510489 C133.451387,260.78155 134.077414,259.813836 134.415812,258.607316 L140.050113,260.718714 C139.204118,263.064724 137.842086,264.891232 135.963976,266.198295 C134.085866,267.505357 131.894771,268.158879 129.390625,268.158879 C126.75112,268.158879 124.505036,267.555628 122.652306,266.349109 Z M149.554823,267.253994 C148.36197,266.650734 147.448308,265.79194 146.813812,264.677585 C146.179315,263.563231 145.862072,262.243621 145.862072,260.718714 L145.862072,247.673291 L141.775935,247.673291 L141.775935,242.545611 L145.963591,242.545611 L145.963591,236.31196 L152.003967,231.93835 L152.003967,242.545611 L158.39966,242.545611 L158.39966,247.673291 L152.003967,247.673291 L152.003967,259.63788 C152.003967,260.77737 152.257762,261.581704 152.765359,262.050906 C153.272956,262.520108 153.975122,262.754705 154.871877,262.754705 C155.464074,262.754705 156.073181,262.666731 156.699218,262.490781 C157.325254,262.31483 157.892063,262.101179 158.39966,261.84982 L158.39966,267.404808 C157.875143,267.605894 157.185667,267.781842 156.331212,267.932657 C155.476756,268.083472 154.643464,268.158879 153.831308,268.158879 C152.173157,268.158879 150.747676,267.857253 149.554823,267.253994 Z M163.805543,237.794965 L163.805543,232.139435 L170.251995,232.139435 L170.251995,237.794965 L163.805543,237.794965 Z M163.957821,267.656165 L163.957821,242.545611 L170.099717,242.545611 L170.099717,267.656165 L163.957821,267.656165 Z M181.292179,266.386812 C179.31255,265.205429 177.781322,263.613518 176.698448,261.611031 C175.615573,259.608545 175.074145,257.417572 175.074145,255.038049 C175.074145,252.675282 175.615573,250.501066 176.698448,248.515337 C177.781322,246.529608 179.31255,244.950264 181.292179,243.77726 C183.271808,242.604255 185.530582,242.017761 188.068568,242.017761 C190.606554,242.017761 192.865328,242.604255 194.844957,243.77726 C196.824586,244.950264 198.355814,246.529608 199.438688,248.515337 C200.521562,250.501066 201.062991,252.675282 201.062991,255.038049 C201.062991,257.417572 200.521562,259.608545 199.438688,261.611031 C198.355814,263.613518 196.824586,265.205429 194.844957,266.386812 C192.865328,267.568196 190.606554,268.158879 188.068568,268.158879 C185.530582,268.158879 183.271808,267.568196 181.292179,266.386812 Z M191.774009,261.812117 C192.755364,261.099935 193.474449,260.153167 193.931286,258.971784 C194.388124,257.790401 194.616539,256.479169 194.616539,255.038049 C194.616539,252.792582 194.07934,250.945128 193.004926,249.495629 C191.930512,248.04613 190.285076,247.321392 188.068568,247.321392 C186.579616,247.321392 185.344481,247.669099 184.363127,248.364523 C183.381772,249.059947 182.662687,249.985769 182.20585,251.142017 C181.749012,252.298264 181.520597,253.596928 181.520597,255.038049 C181.520597,256.479169 181.749012,257.790401 182.20585,258.971784 C182.662687,260.153167 183.381772,261.099935 184.363127,261.812117 C185.344481,262.524298 186.579616,262.880384 188.068568,262.880384 C189.55752,262.880384 190.792654,262.524298 191.774009,261.812117 Z M206.088178,242.545611 L212.230074,242.545611 L212.230074,245.461351 C213.194508,244.305103 214.345045,243.44212 215.681718,242.872375 C217.01839,242.30263 218.363503,242.017761 219.717095,242.017761 C221.815163,242.017761 223.553658,242.512092 224.93263,243.500767 C226.311603,244.489442 227.318322,245.783917 227.952818,247.384231 C228.587315,248.984545 228.904558,250.714701 228.904558,252.574751 L228.904558,267.656165 L222.788043,267.656165 L222.788043,253.353957 C222.788043,251.661479 222.365051,250.291598 221.519056,249.244272 C220.673061,248.196946 219.480225,247.673291 217.940514,247.673291 C216.130084,247.673291 214.725753,248.184379 213.727478,249.206569 C212.729204,250.228758 212.230074,251.795534 212.230074,253.906943 L212.230074,267.656165 L206.088178,267.656165 L206.088178,242.545611 Z M235.554049,242.545611 L241.695944,242.545611 L241.695944,245.461351 C242.660379,244.305103 243.810915,243.44212 245.147588,242.872375 C246.48426,242.30263 247.829373,242.017761 249.182965,242.017761 C251.281034,242.017761 253.019528,242.512092 254.3985,243.500767 C255.777473,244.489442 256.784192,245.783917 257.418689,247.384231 C258.053185,248.984545 258.370429,250.714701 258.370429,252.574751 L258.370429,267.656165 L252.253913,267.656165 L252.253913,253.353957 C252.253913,251.661479 251.830922,250.291598 250.984926,249.244272 C250.138931,248.196946 248.946095,247.673291 247.406384,247.673291 C245.595954,247.673291 244.191623,248.184379 243.193348,249.206569 C242.195074,250.228758 241.695944,251.795534 241.695944,253.906943 L241.695944,267.656165 L235.554049,267.656165 L235.554049,242.545611 Z M268.496942,266.374245 C266.568073,265.184483 265.125672,263.605139 264.169698,261.636167 C263.213723,259.667195 262.735743,257.518115 262.735743,255.188863 C262.735743,252.909882 263.192573,250.764991 264.106248,248.754126 C265.019923,246.743261 266.411565,245.117836 268.281214,243.877802 C270.150864,242.637769 272.447707,242.017761 275.171812,242.017761 C277.946677,242.017761 280.21391,242.650337 281.97358,243.915506 C283.733251,245.180675 284.997995,246.772586 285.76785,248.691287 C286.537706,250.609987 286.922628,252.608255 286.922628,254.686149 C286.922628,255.188865 286.901479,255.670628 286.859179,256.131451 C286.816879,256.592274 286.76189,256.914846 286.694211,257.099175 L269.283714,257.099175 C269.875911,260.769004 271.990867,262.603891 275.628647,262.603891 C276.82996,262.603891 277.929738,262.394429 278.928012,261.975499 C279.926287,261.556569 280.856868,260.877912 281.719783,259.939508 L285.983578,263.634454 C284.596146,265.159361 283.047998,266.294644 281.339087,267.04034 C279.630176,267.786036 277.709796,268.158879 275.577888,268.158879 C272.786103,268.158879 270.425811,267.564006 268.496942,266.374245 Z M280.831492,252.675294 C280.628453,250.899029 280.032036,249.537527 279.042221,248.590744 C278.052407,247.643962 276.745363,247.170578 275.121052,247.170578 C271.90627,247.170578 269.96051,249.005465 269.283714,252.675294 L280.831492,252.675294 Z M293.36908,266.939798 C292.421566,266.127073 291.947815,264.698542 291.947815,262.654162 L291.947815,232.139435 L298.14047,232.139435 L298.14047,260.970071 C298.14047,262.092804 298.817256,262.654162 300.170849,262.654162 C300.644606,262.654162 301.211415,262.603892 301.871291,262.503348 L301.871291,267.656165 C300.145461,267.991309 298.605772,268.158879 297.25218,268.158879 C295.610949,268.158879 294.316595,267.752522 293.36908,266.939798 Z M307.911668,266.939798 C306.964153,266.127073 306.490402,264.698542 306.490402,262.654162 L306.490402,232.139435 L312.683057,232.139435 L312.683057,260.970071 C312.683057,262.092804 313.359843,262.654162 314.713436,262.654162 C315.187193,262.654162 315.754002,262.603892 316.413878,262.503348 L316.413878,267.656165 C314.688048,267.991309 313.148359,268.158879 311.794767,268.158879 C310.153536,268.158879 308.859182,267.752522 307.911668,266.939798 Z M324.662291,266.374245 C322.733422,265.184483 321.291022,263.605139 320.335047,261.636167 C319.379072,259.667195 318.901092,257.518115 318.901092,255.188863 C318.901092,252.909882 319.357923,250.764991 320.271598,248.754126 C321.185272,246.743261 322.576914,245.117836 324.446564,243.877802 C326.316213,242.637769 328.613056,242.017761 331.337161,242.017761 C334.112026,242.017761 336.379259,242.650337 338.13893,243.915506 C339.8986,245.180675 341.163344,246.772586 341.9332,248.691287 C342.703055,250.609987 343.087978,252.608255 343.087978,254.686149 C343.087978,255.188865 343.066828,255.670628 343.024528,256.131451 C342.982228,256.592274 342.92724,256.914846 342.85956,257.099175 L325.449063,257.099175 C326.04126,260.769004 328.156216,262.603891 331.793996,262.603891 C332.99531,262.603891 334.095087,262.394429 335.093362,261.975499 C336.091636,261.556569 337.022217,260.877912 337.885132,259.939508 L342.148927,263.634454 C340.761495,265.159361 339.213347,266.294644 337.504436,267.04034 C335.795526,267.786036 333.875145,268.158879 331.743237,268.158879 C328.951452,268.158879 326.591161,267.564006 324.662291,266.374245 Z M336.996842,252.675294 C336.793803,250.899029 336.197385,249.537527 335.20757,248.590744 C334.217756,247.643962 332.910713,247.170578 331.286402,247.170578 C328.071619,247.170578 326.125859,249.005465 325.449063,252.675294 L336.996842,252.675294 Z" transform="rotate(-90 203.271 172.832)"/>
    <path fill-rule="nonzero" d="M98.5388359,77.5113071 L67.8322234,32.6448598 L16.7691158,104.126049 L40.2002577,104.126049 L0,158.813084 L63.6002535,158.813084 C65.897011,158.813084 67.7589009,156.976768 67.7589009,154.711556 C67.7589009,152.446345 65.897011,150.610029 63.6002535,150.610029 L16.3032444,150.610029 L56.5035021,95.922994 L32.8033074,95.922994 L67.6855783,47.0927067 L96.0095382,88.4777815 C96.0475624,90.6394715 96.4410951,92.7233915 97.2227587,94.6663551 C102.092301,107.919626 104.023327,111.253271 104.023327,121.823364 L100.497106,121.823364 C100.329191,110.196262 95.7954789,102.471963 89.0788682,100.114019 C86.0563934,98.9757009 82.2782998,99.5448598 78.7520792,103.041121 C74.3862822,107.350467 73.1269177,119.302804 85.8884781,121.579439 C84.4611983,119.628037 84.6291136,115.318692 87.3157579,113.85514 C89.3307411,112.879439 91.6815549,113.204673 92.7730041,114.099065 C94.5361144,115.156075 96.2152671,118.408411 96.2152671,121.742056 L90.1703174,121.742056 L90.1703174,128.328037 L102.763963,128.328037 C102.596047,131.661682 100.665022,134.426168 97.1388011,135.88972 C97.6425469,137.353271 99.7414877,140.199065 102.680005,140.036449 C103.267708,143.126168 103.855412,144.833645 106.458098,147.598131 C109.144743,144.833645 109.648489,143.126168 110.236192,140.036449 C113.174709,140.199065 115.357608,137.271963 115.777396,135.88972 C112.251175,134.426168 110.32015,131.661682 110.152234,128.328037 L122.745879,128.328037 L122.745879,121.742056 L116.70093,121.742056 C116.70093,118.408411 118.380082,115.156075 120.143193,114.099065 C121.234642,113.285981 123.501498,112.879439 125.600439,113.85514 C128.287083,115.4 128.371041,119.628037 127.195634,121.579439 C139.957194,119.302804 138.69783,107.350467 134.332033,103.041121 C130.805812,99.5448598 126.943761,98.9757009 124.005244,100.114019 C117.288633,102.471963 112.838879,110.27757 112.587006,121.823364 L109.060785,121.823364 C109.060785,111.253271 110.907853,107.919626 115.861353,94.6663551 C118.380082,88.4869159 116.868845,80.7626168 112.41909,73.6074766 C110.823895,71.0869159 108.808912,68.728972 106.542056,66.2897196 C104.2752,68.728972 102.260217,71.0869159 100.665022,73.6074766 C99.8572918,74.8915351 99.1463871,76.1970268 98.5388359,77.5113071 Z"/>
  </g>
</svg>
