<svg xmlns="http://www.w3.org/2000/svg" width="300" height="103" viewBox="0 0 300 103">
  <g fill="#001559" fill-rule="evenodd">
    <path d="M115.508021,19.2352624 L115.508021,0.108291414 L118.956723,0.108291414 L118.956723,19.2352624 L115.508021,19.2352624 Z M123.396588,5.71237208 L126.682359,5.71237208 L126.682359,7.28259758 C127.198309,6.65991884 127.813819,6.19517284 128.528908,5.88834563 C129.243997,5.58151842 129.963601,5.42810712 130.687741,5.42810712 C131.810159,5.42810712 132.740213,5.69432085 133.477931,6.2267563 C134.215649,6.75919175 134.754221,7.45631075 135.093662,8.31813423 C135.433102,9.17995771 135.60282,10.1117058 135.60282,11.1134064 L135.60282,19.2352624 L132.330627,19.2352624 L132.330627,11.5330356 C132.330627,10.6215783 132.104336,9.88385041 131.651748,9.31982981 C131.199161,8.75580921 130.561021,8.47380314 129.737311,8.47380314 C128.768774,8.47380314 128.017489,8.74904106 127.483435,9.29952517 C126.949382,9.85000927 126.682359,10.6937714 126.682359,11.830837 L126.682359,19.2352624 L123.396588,19.2352624 L123.396588,5.71237208 Z M140.687619,18.9983749 C139.904642,18.6599626 139.243874,18.2042408 138.705294,17.6311958 C138.166715,17.0581509 137.784284,16.4196892 137.55799,15.7157914 L140.192038,14.5516587 C140.427384,15.1833618 140.766819,15.7112772 141.210355,16.1354207 C141.653892,16.5595642 142.278453,16.7716327 143.08406,16.7716327 C143.563803,16.7716327 143.968863,16.690415 144.299252,16.527977 C144.629641,16.3655391 144.876298,16.1602387 145.039229,15.9120696 C145.202161,15.6639006 145.283626,15.4134792 145.283626,15.1607979 C145.283626,14.8720194 145.177269,14.6328782 144.964553,14.4433673 C144.751836,14.2538564 144.487077,14.1027012 144.170265,13.989897 C143.853454,13.8770929 143.396347,13.743986 142.798931,13.5905724 C141.902807,13.3559399 141.167363,13.1167987 140.592576,12.8731418 C140.01779,12.6294849 139.519951,12.2482127 139.099044,11.7293138 C138.678137,11.2104148 138.467687,10.5132958 138.467687,9.63793584 C138.467687,8.72647855 138.698503,7.95490994 139.160143,7.32320686 C139.621782,6.69150379 140.23503,6.21773359 140.999903,5.90188206 C141.764777,5.58603052 142.599789,5.42810712 143.504964,5.42810712 C144.654537,5.42810712 145.668319,5.68529666 146.546339,6.19968345 C147.42436,6.71407023 148.12586,7.43600577 148.650862,8.36551172 L146.084702,9.75976368 C145.804098,9.25440122 145.453347,8.84154433 145.032441,8.52118063 C144.611534,8.20081693 144.066174,8.04063748 143.396344,8.04063748 C142.871342,8.04063748 142.448179,8.15343991 142.126841,8.37904815 C141.805504,8.60465639 141.644838,8.87989431 141.644838,9.20477018 C141.644838,9.45745141 141.744405,9.66951997 141.943544,9.84098224 C142.142683,10.0124445 142.393865,10.1523195 142.697099,10.2606115 C143.000333,10.3689034 143.428022,10.5042663 143.980179,10.6667043 C144.91251,10.9284098 145.681898,11.1968796 146.288365,11.4721217 C146.894833,11.7473637 147.42209,12.1692448 147.870152,12.7377776 C148.318214,13.3063103 148.542242,14.0598305 148.542242,14.9983608 C148.542242,15.9910371 148.288796,16.825775 147.781898,17.5025998 C147.274999,18.1794245 146.618757,18.6825233 145.813151,19.0119114 C145.007544,19.3412994 144.152166,19.5059909 143.246991,19.5059909 C142.323711,19.5059909 141.470596,19.3367873 140.687619,18.9983749 Z M154.034367,19.0186796 C153.396219,18.6938037 152.907431,18.2313137 152.56799,17.6311958 C152.228549,17.0310779 152.058831,16.3204226 152.058831,15.4992086 L152.058831,8.47380314 L149.872843,8.47380314 L149.872843,5.71237208 L152.113142,5.71237208 L152.113142,2.35533825 L155.344603,0 L155.344603,5.71237208 L158.766149,5.71237208 L158.766149,8.47380314 L155.344603,8.47380314 L155.344603,14.9171423 C155.344603,15.5307967 155.480377,15.963958 155.75193,16.2166392 C156.023482,16.4693205 156.399125,16.5956592 156.878868,16.5956592 C157.195679,16.5956592 157.521537,16.5482822 157.856452,16.4535267 C158.191367,16.3587712 158.494597,16.2437128 158.766149,16.1083478 L158.766149,19.0998981 C158.485545,19.2081901 158.116691,19.3029441 157.659578,19.3841631 C157.202464,19.4653821 156.756672,19.5059909 156.322187,19.5059909 C155.435115,19.5059909 154.672516,19.3435554 154.034367,19.0186796 Z M161.658171,3.15398743 L161.658171,0.108291414 L165.106873,0.108291414 L165.106873,3.15398743 L161.658171,3.15398743 Z M161.739637,19.2352624 L161.739637,5.71237208 L165.025408,5.71237208 L165.025408,19.2352624 L161.739637,19.2352624 Z M171.495118,19.0186796 C170.85697,18.6938037 170.368182,18.2313137 170.028741,17.6311958 C169.6893,17.0310779 169.519582,16.3204226 169.519582,15.4992086 L169.519582,8.47380314 L167.333594,8.47380314 L167.333594,5.71237208 L169.573893,5.71237208 L169.573893,2.35533825 L172.805354,0 L172.805354,5.71237208 L176.2269,5.71237208 L176.2269,8.47380314 L172.805354,8.47380314 L172.805354,14.9171423 C172.805354,15.5307967 172.941128,15.963958 173.212681,16.2166392 C173.484233,16.4693205 173.859876,16.5956592 174.339619,16.5956592 C174.65643,16.5956592 174.982288,16.5482822 175.317203,16.4535267 C175.652118,16.3587712 175.955348,16.2437128 176.2269,16.1083478 L176.2269,19.0998981 C175.946296,19.2081901 175.577442,19.3029441 175.120329,19.3841631 C174.663215,19.4653821 174.217423,19.5059909 173.782938,19.5059909 C172.895866,19.5059909 172.133267,19.3435554 171.495118,19.0186796 Z M180.015042,17.7462555 C179.200383,16.5730926 178.793061,14.9352013 178.793061,12.8325325 L178.793061,5.71237208 L182.14672,5.71237208 L182.14672,12.940824 C182.14672,13.734965 182.214607,14.389219 182.350383,14.9036058 C182.486159,15.4179926 182.732816,15.8150572 183.09036,16.0948114 C183.447905,16.3745656 183.952533,16.5144406 184.604259,16.5144406 C185.527538,16.5144406 186.281086,16.1737773 186.864924,15.4924404 C187.448762,14.8111035 187.740677,13.581557 187.740677,11.8037641 L187.740677,5.71237208 L191.107914,5.71237208 L191.107914,19.2352624 L187.740677,19.2352624 L187.740677,17.6515005 C187.260934,18.2741792 186.679367,18.7389252 185.99596,19.0457524 C185.312552,19.3525796 184.559005,19.5059909 183.735295,19.5059909 C182.069772,19.5059909 180.8297,18.9194183 180.015042,17.7462555 Z M197.577624,19.0186796 C196.939475,18.6938037 196.450688,18.2313137 196.111247,17.6311958 C195.771806,17.0310779 195.602088,16.3204226 195.602088,15.4992086 L195.602088,8.47380314 L193.4161,8.47380314 L193.4161,5.71237208 L195.656399,5.71237208 L195.656399,2.35533825 L198.88786,0 L198.88786,5.71237208 L202.309406,5.71237208 L202.309406,8.47380314 L198.88786,8.47380314 L198.88786,14.9171423 C198.88786,15.5307967 199.023634,15.963958 199.295187,16.2166392 C199.566739,16.4693205 199.942381,16.5956592 200.422125,16.5956592 C200.738936,16.5956592 201.064794,16.5482822 201.399709,16.4535267 C201.734624,16.3587712 202.037854,16.2437128 202.309406,16.1083478 L202.309406,19.0998981 C202.028802,19.2081901 201.659948,19.3029441 201.202835,19.3841631 C200.745721,19.4653821 200.299929,19.5059909 199.865444,19.5059909 C198.978372,19.5059909 198.215773,19.3435554 197.577624,19.0186796 Z M148.596552,45.8208045 C147.166374,46.7593348 145.451092,47.2285929 143.450654,47.2285929 C141.423061,47.2285929 139.714567,46.7841513 138.325123,45.8952548 C136.935678,45.0063584 135.899267,43.8174208 135.21586,42.3284064 C134.532452,40.839392 134.190753,39.1924766 134.190753,37.3876106 C134.190753,35.5827447 134.532452,33.9358293 135.21586,32.4468149 C135.899267,30.9578005 136.935678,29.7688629 138.325123,28.8799664 C139.714567,27.99107 141.423061,27.5466284 143.450654,27.5466284 C145.478247,27.5466284 147.186741,27.993326 148.576185,28.8867347 C149.96563,29.7801433 151.002041,30.973593 151.685448,32.4671195 C152.368856,33.9606461 152.710555,35.6098176 152.710555,37.4146835 C152.710555,38.6419923 152.547625,39.8173936 152.221762,40.9409227 C151.895899,42.0644517 151.429741,43.0458328 150.823273,43.8850955 L153.565941,46.4840894 L151.352798,48.5686991 L148.596552,45.8208045 Z M146.15259,43.4383934 L143.532119,41.0559823 L145.75884,39.0255183 L148.311423,41.3808565 C148.945046,40.243791 149.261853,38.9127223 149.261853,37.3876106 C149.261853,36.1332288 149.058191,35.0119727 148.650862,34.0238086 C148.243533,33.0356445 147.605394,32.2505396 146.736425,31.6684703 C145.867457,31.0864011 144.77221,30.7953708 143.450654,30.7953708 C142.129098,30.7953708 141.033851,31.0864011 140.164883,31.6684703 C139.295914,32.2505396 138.657775,33.0356445 138.250446,34.0238086 C137.843117,35.0119727 137.639455,36.1332288 137.639455,37.3876106 C137.639455,38.6419925 137.843117,39.7655046 138.250446,40.7581809 C138.657775,41.7508572 139.295914,42.5382181 140.164883,43.1202874 C141.033851,43.7023566 142.129098,43.9933869 143.450654,43.9933869 C144.446347,43.9933869 145.346983,43.8083909 146.15259,43.4383934 Z M157.218307,45.4688574 C156.403649,44.2956946 155.996326,42.6578033 155.996326,40.5551345 L155.996326,33.434974 L159.349985,33.434974 L159.349985,40.6634259 C159.349985,41.4575669 159.417872,42.111821 159.553648,42.6262078 C159.689425,43.1405946 159.936081,43.5376591 160.293626,43.8174133 C160.65117,44.0971676 161.155798,44.2370426 161.807524,44.2370426 C162.730804,44.2370426 163.484351,43.8963792 164.068189,43.2150424 C164.652028,42.5337055 164.943942,41.304159 164.943942,39.5263661 L164.943942,33.434974 L168.311179,33.434974 L168.311179,46.9578643 L164.943942,46.9578643 L164.943942,45.3741024 C164.464199,45.9967812 163.882633,46.4615272 163.199225,46.7683544 C162.515817,47.0751816 161.76227,47.2285929 160.93856,47.2285929 C159.273037,47.2285929 158.032965,46.6420203 157.218307,45.4688574 Z M174.1088,46.2675066 C173.0769,45.6267792 172.305249,44.7762489 171.793825,43.7158901 C171.282401,42.6555314 171.026692,41.4981785 171.026692,40.2437967 C171.026692,39.0164879 171.271086,37.861391 171.759881,36.7784714 C172.248676,35.6955519 172.993172,34.820205 173.993391,34.1524047 C174.99361,33.4846043 176.222367,33.1507091 177.6797,33.1507091 C179.164188,33.1507091 180.377105,33.4913724 181.318488,34.1727093 C182.259871,34.8540462 182.936479,35.7113446 183.348334,36.7446304 C183.760189,37.7779161 183.966114,38.8540513 183.966114,39.9730682 C183.966114,40.243798 183.954799,40.5032436 183.93217,40.7514127 C183.90954,40.9995818 183.880122,41.1732975 183.843915,41.2725651 L174.529705,41.2725651 C174.846516,43.2488933 175.977969,44.2370426 177.924096,44.2370426 C178.566771,44.2370426 179.155126,44.1242401 179.68918,43.8986319 C180.223234,43.6730237 180.721073,43.3075438 181.182712,42.8021813 L183.463744,44.7920361 C182.7215,45.6132501 181.893276,46.2246392 180.979049,46.6262219 C180.064821,47.0278046 179.037462,47.2285929 177.896941,47.2285929 C176.403401,47.2285929 175.1407,46.908234 174.1088,46.2675066 Z M180.707497,38.890154 C180.598876,37.9335751 180.279807,37.2003593 179.750279,36.6904847 C179.220751,36.18061 178.521514,35.9256766 177.652545,35.9256766 C175.932711,35.9256766 174.891775,36.9138258 174.529705,38.890154 L180.707497,38.890154 Z M175.805996,31.7429207 L178.860948,27.8308934 L182.391116,27.8308934 L178.222803,31.7429207 L175.805996,31.7429207 Z M191.888624,46.8292683 C191.205216,46.5630506 190.637227,46.1547058 190.184639,45.6042217 L190.184639,46.9578643 L186.763092,46.9578643 L186.763092,27.8308934 L190.184639,27.8308934 L190.184639,34.7886167 C190.637227,34.2291083 191.193902,33.8162514 191.85468,33.5500337 C192.515458,33.2838159 193.230536,33.1507091 193.999935,33.1507091 C195.230974,33.1507091 196.287751,33.4688119 197.170297,34.1050272 C198.052844,34.7412424 198.722664,35.5940288 199.179777,36.6634118 C199.636891,37.7327949 199.865444,38.9081962 199.865444,40.189651 C199.865444,41.4620815 199.636891,42.6352267 199.179777,43.7091219 C198.722664,44.7830172 198.057369,45.6380596 197.183875,46.2742748 C196.31038,46.91049 195.267181,47.2285929 194.054246,47.2285929 C193.293898,47.2285929 192.572031,47.095486 191.888624,46.8292683 Z M195.697131,43.0796781 C196.249288,42.3441952 196.525363,41.3808625 196.525363,40.189651 C196.525363,38.9984395 196.247026,38.0260825 195.690343,37.272551 C195.13366,36.5190195 194.312225,36.1422594 193.226014,36.1422594 C192.130752,36.1422594 191.300265,36.5167634 190.734531,37.2657828 C190.168796,38.0148022 189.885933,38.9894151 189.885933,40.189651 C189.885933,41.3808625 190.168796,42.3441952 190.734531,43.0796781 C191.300265,43.815161 192.130752,44.1828969 193.226014,44.1828969 C194.321277,44.1828969 195.144974,43.815161 195.697131,43.0796781 Z M204.563282,46.2675066 C203.531382,45.6267792 202.759732,44.7762489 202.248307,43.7158901 C201.736883,42.6555314 201.481175,41.4981785 201.481175,40.2437967 C201.481175,39.0164879 201.725569,37.861391 202.214363,36.7784714 C202.703158,35.6955519 203.447654,34.820205 204.447873,34.1524047 C205.448092,33.4846043 206.67685,33.1507091 208.134183,33.1507091 C209.618671,33.1507091 210.831588,33.4913724 211.77297,34.1727093 C212.714353,34.8540462 213.390962,35.7113446 213.802817,36.7446304 C214.214672,37.7779161 214.420596,38.8540513 214.420596,39.9730682 C214.420596,40.243798 214.409282,40.5032436 214.386652,40.7514127 C214.364023,40.9995818 214.334605,41.1732975 214.298398,41.2725651 L204.984187,41.2725651 C205.300999,43.2488933 206.432451,44.2370426 208.378579,44.2370426 C209.021253,44.2370426 209.609609,44.1242401 210.143662,43.8986319 C210.677716,43.6730237 211.175555,43.3075438 211.637195,42.8021813 L213.918226,44.7920361 C213.175982,45.6132501 212.347759,46.2246392 211.433531,46.6262219 C210.519304,47.0278046 209.491945,47.2285929 208.351424,47.2285929 C206.857884,47.2285929 205.595183,46.908234 204.563282,46.2675066 Z M211.16198,38.890154 C211.053359,37.9335751 210.734289,37.2003593 210.204762,36.6904847 C209.675234,36.18061 208.975996,35.9256766 208.107027,35.9256766 C206.387194,35.9256766 205.346257,36.9138258 204.984187,38.890154 L211.16198,38.890154 Z M206.260478,31.7429207 L209.315431,27.8308934 L212.845598,27.8308934 L208.677285,31.7429207 L206.260478,31.7429207 Z M218.962292,46.2539702 C217.971125,45.6042184 217.228892,44.7446639 216.735571,43.6752809 C216.24225,42.6058978 215.995594,41.453057 215.995594,40.2167238 C215.995594,38.989415 216.24225,37.8365742 216.735571,36.7581668 C217.228892,35.6797594 217.966599,34.8089247 218.948715,34.1456364 C219.93083,33.4823482 221.127907,33.1507091 222.539981,33.1507091 C223.915848,33.1507091 225.110662,33.4868603 226.124459,34.1591729 C227.138255,34.8314854 227.898592,35.8264028 228.40549,37.143955 L225.255494,38.3622334 C225.074459,37.694433 224.741812,37.1574934 224.257543,36.7513986 C223.773274,36.3453038 223.200759,36.1422594 222.539981,36.1422594 C221.81584,36.1422594 221.216171,36.3340235 220.740953,36.7175575 C220.265736,37.1010915 219.917249,37.6019343 219.695481,38.2201009 C219.473713,38.8382675 219.36283,39.5038018 219.36283,40.2167238 C219.36283,40.9476945 219.47145,41.6154849 219.688692,42.220115 C219.905934,42.8247451 220.252159,43.3120516 220.727376,43.6820491 C221.202593,44.0520466 221.806789,44.2370426 222.539981,44.2370426 C223.191707,44.2370426 223.76196,44.0407663 224.250754,43.648208 C224.739549,43.2556497 225.074459,42.7345025 225.255494,42.0847507 L228.269714,43.2218106 C227.817126,44.4852167 227.088471,45.4688539 226.083726,46.1727516 C225.078981,46.8766493 223.906796,47.2285929 222.567136,47.2285929 C221.155062,47.2285929 219.953459,46.9037219 218.962292,46.2539702 Z M232.872509,46.2742748 C231.813454,45.6380596 230.994282,44.7807611 230.41497,43.7023537 C229.835657,42.6239463 229.546006,41.4440329 229.546006,40.1625781 C229.546006,38.8901476 229.835657,37.7192584 230.41497,36.6498754 C230.994282,35.5804923 231.813454,34.729962 232.872509,34.0982589 C233.931565,33.4665559 235.139956,33.1507091 236.49772,33.1507091 C237.855483,33.1507091 239.063875,33.4665559 240.12293,34.0982589 C241.181986,34.729962 242.001157,35.5804923 242.58047,36.6498754 C243.159782,37.7192584 243.449434,38.8901476 243.449434,40.1625781 C243.449434,41.4440329 243.159782,42.6239463 242.58047,43.7023537 C242.001157,44.7807611 241.181986,45.6380596 240.12293,46.2742748 C239.063875,46.91049 237.855483,47.2285929 236.49772,47.2285929 C235.139956,47.2285929 233.931565,46.91049 232.872509,46.2742748 Z M238.480045,43.8106451 C239.005046,43.4271111 239.38974,42.9172441 239.634138,42.2810289 C239.878535,41.6448137 240.000732,40.9386705 240.000732,40.1625781 C240.000732,38.953318 239.713343,37.9584005 239.138557,37.177796 C238.56377,36.3971915 237.6835,36.0068951 236.49772,36.0068951 C235.701165,36.0068951 235.040397,36.1941471 234.515395,36.5686568 C233.990393,36.9431665 233.605699,37.4417532 233.361302,38.064432 C233.116904,38.6871107 232.994708,39.3864858 232.994708,40.1625781 C232.994708,40.9386705 233.116904,41.6448137 233.361302,42.2810289 C233.605699,42.9172441 233.990393,43.4271111 234.515395,43.8106451 C235.040397,44.1941791 235.701165,44.3859433 236.49772,44.3859433 C237.294274,44.3859433 237.955043,44.1941791 238.480045,43.8106451 Z M246.056327,30.8765894 L246.056327,27.8308934 L249.505029,27.8308934 L249.505029,30.8765894 L246.056327,30.8765894 Z M246.137792,46.9578643 L246.137792,33.434974 L249.423563,33.434974 L249.423563,46.9578643 L246.137792,46.9578643 Z M254.888534,46.7209769 C254.105557,46.3825645 253.444789,45.9268427 252.906209,45.3537978 C252.36763,44.7807528 251.985199,44.1422911 251.758905,43.4383934 L254.392953,42.2742607 C254.628299,42.9059638 254.967734,43.4338791 255.41127,43.8580226 C255.854806,44.2821661 256.479368,44.4942347 257.284975,44.4942347 C257.764718,44.4942347 258.169778,44.4130169 258.500167,44.250579 C258.830556,44.0881411 259.077213,43.8828406 259.240144,43.6346716 C259.403076,43.3865025 259.48454,43.1360811 259.48454,42.8833999 C259.48454,42.5946214 259.378184,42.3554802 259.165468,42.1659693 C258.952751,41.9764584 258.687991,41.8253031 258.37118,41.712499 C258.054369,41.5996949 257.597262,41.466588 256.999846,41.3131744 C256.103722,41.0785418 255.368278,40.8394007 254.793491,40.5957438 C254.218705,40.3520869 253.720865,39.9708147 253.299959,39.4519157 C252.879052,38.9330168 252.668602,38.2358978 252.668602,37.3605378 C252.668602,36.4490805 252.899418,35.6775119 253.361058,35.0458088 C253.822697,34.4141057 254.435945,33.9403355 255.200818,33.624484 C255.965692,33.3086325 256.800704,33.1507091 257.705879,33.1507091 C258.855452,33.1507091 259.869234,33.4078986 260.747254,33.9222854 C261.625275,34.4366722 262.326775,35.1586077 262.851777,36.0881137 L260.285617,37.4823656 C260.005012,36.9770032 259.654262,36.5641463 259.233355,36.2437826 C258.812449,35.9234189 258.267089,35.7632394 257.597259,35.7632394 C257.072257,35.7632394 256.649094,35.8760419 256.327756,36.1016501 C256.006419,36.3272583 255.845753,36.6024963 255.845753,36.9273721 C255.845753,37.1800534 255.94532,37.3921219 256.144459,37.5635842 C256.343598,37.7350465 256.59478,37.8749215 256.898014,37.9832134 C257.201248,38.0915054 257.628937,38.2268683 258.181094,38.3893062 C259.113425,38.6510118 259.882813,38.9194816 260.48928,39.1947236 C261.095748,39.4699657 261.623005,39.8918467 262.071067,40.4603795 C262.519129,41.0289123 262.743157,41.7824325 262.743157,42.7209628 C262.743157,43.713639 262.489711,44.548377 261.982813,45.2252017 C261.475914,45.9020264 260.819672,46.4051253 260.014066,46.7345133 C259.208459,47.0639013 258.353081,47.2285929 257.447905,47.2285929 C256.524626,47.2285929 255.671511,47.0593892 254.888534,46.7209769 Z M284.31791,27.8308934 L284.31791,46.9578643 L281.235803,46.9578643 L281.086449,45.4417846 C280.642913,46.0464146 280.074924,46.4953683 279.382465,46.788659 C278.690005,47.0819497 277.94551,47.2285929 277.148955,47.2285929 C275.917916,47.2285929 274.858876,46.91049 273.971804,46.2742748 C273.084732,45.6380596 272.412649,44.7852732 271.955536,43.7158901 C271.498422,42.6465071 271.269869,41.4711058 271.269869,40.189651 C271.269869,38.9172205 271.498422,37.7463313 271.955536,36.6769482 C272.412649,35.6075652 273.080206,34.7525228 273.958227,34.1117954 C274.836247,33.471068 275.881709,33.1507091 277.094645,33.1507091 C277.854992,33.1507091 278.576859,33.286072 279.260267,33.5568019 C279.943674,33.8275318 280.507138,34.2381326 280.950674,34.7886167 L280.950674,27.8308934 L284.31791,27.8308934 Z M280.41436,43.1270556 C280.961991,42.3870606 281.235803,41.4079355 281.235803,40.189651 C281.235803,38.9803908 280.959728,38.0035218 280.407571,37.2590146 C279.855414,36.5145074 279.036242,36.1422594 277.950031,36.1422594 C276.863821,36.1422594 276.040123,36.5190195 275.478914,37.272551 C274.917705,38.0260825 274.637105,38.9984395 274.637105,40.189651 C274.637105,41.3898868 274.915442,42.3644998 275.472125,43.1135192 C276.028808,43.8625385 276.854769,44.2370426 277.950031,44.2370426 C279.045294,44.2370426 279.866729,43.8670506 280.41436,43.1270556 Z M290.142686,46.2675066 C289.110786,45.6267792 288.339136,44.7762489 287.827711,43.7158901 C287.316287,42.6555314 287.060579,41.4981785 287.060579,40.2437967 C287.060579,39.0164879 287.304973,37.861391 287.793767,36.7784714 C288.282562,35.6955519 289.027058,34.820205 290.027277,34.1524047 C291.027496,33.4846043 292.256254,33.1507091 293.713587,33.1507091 C295.198075,33.1507091 296.410992,33.4913724 297.352374,34.1727093 C298.293757,34.8540462 298.970366,35.7113446 299.382221,36.7446304 C299.794076,37.7779161 300,38.8540513 300,39.9730682 C300,40.243798 299.988685,40.5032436 299.966056,40.7514127 C299.943427,40.9995818 299.914009,41.1732975 299.877802,41.2725651 L290.563591,41.2725651 C290.880403,43.2488933 292.011855,44.2370426 293.957983,44.2370426 C294.600657,44.2370426 295.189013,44.1242401 295.723066,43.8986319 C296.25712,43.6730237 296.754959,43.3075438 297.216599,42.8021813 L299.49763,44.7920361 C298.755386,45.6132501 297.927163,46.2246392 297.012935,46.6262219 C296.098708,47.0278046 295.071349,47.2285929 293.930828,47.2285929 C292.437288,47.2285929 291.174587,46.908234 290.142686,46.2675066 Z M296.741384,38.890154 C296.632763,37.9335751 296.313693,37.2003593 295.784165,36.6904847 C295.254638,36.18061 294.5554,35.9256766 293.686431,35.9256766 C291.966598,35.9256766 290.925661,36.9138258 290.563591,38.890154 L296.741384,38.890154 Z M128.868347,74.6804663 L128.868347,55.5534953 L133.511875,55.5534953 L138.603463,69.1576042 L143.69505,55.5534953 L148.338578,55.5534953 L148.338578,74.6804663 L145.025652,74.6804663 L145.025652,60.3724632 L140.273503,73.0154858 L136.933422,73.0154858 L132.181274,60.3724632 L132.181274,74.6804663 L128.868347,74.6804663 Z M154.638569,73.9901085 C153.606669,73.3493811 152.835018,72.4988508 152.323594,71.4384921 C151.81217,70.3781334 151.556461,69.2207805 151.556461,67.9663986 C151.556461,66.7390898 151.800855,65.5839929 152.28965,64.5010734 C152.778445,63.4181538 153.522941,62.542807 154.52316,61.8750066 C155.523379,61.2072062 156.752136,60.873311 158.209469,60.873311 C159.693957,60.873311 160.906874,61.2139744 161.848257,61.8953112 C162.78964,62.5766481 163.466248,63.4339466 163.878103,64.4672323 C164.289958,65.5005181 164.495883,66.5766532 164.495883,67.6956701 C164.495883,67.9664 164.484568,68.2258456 164.461939,68.4740146 C164.439309,68.7221837 164.409892,68.8958994 164.373685,68.9951671 L155.059474,68.9951671 C155.376285,70.9714953 156.507738,71.9596445 158.453865,71.9596445 C159.09654,71.9596445 159.684895,71.8468421 160.218949,71.6212339 C160.753003,71.3956256 161.250842,71.0301458 161.712481,70.5247833 L163.993513,72.514638 C163.251269,73.335852 162.423045,73.9472412 161.508818,74.3488238 C160.594591,74.7504065 159.567232,74.9511948 158.42671,74.9511948 C156.93317,74.9511948 155.670469,74.6308359 154.638569,73.9901085 Z M161.237267,66.612756 C161.128646,65.656177 160.809576,64.9229612 160.280048,64.4130866 C159.75052,63.903212 159.051283,63.6482785 158.182314,63.6482785 C156.46248,63.6482785 155.421544,64.6364278 155.059474,66.612756 L161.237267,66.612756 Z M156.335765,59.4655227 L159.390718,55.5534953 L162.920885,55.5534953 L158.752572,59.4655227 L156.335765,59.4655227 Z M179.200388,55.5534953 L179.200388,74.6804663 L176.11828,74.6804663 L175.968927,73.1643865 C175.525391,73.7690166 174.957401,74.2179703 174.264942,74.511261 C173.572483,74.8045517 172.827987,74.9511948 172.031432,74.9511948 C170.800393,74.9511948 169.741354,74.633092 168.854282,73.9968768 C167.967209,73.3606615 167.295127,72.5078752 166.838013,71.4384921 C166.380899,70.369109 166.152346,69.1937077 166.152346,67.9122529 C166.152346,66.6398225 166.380899,65.4689333 166.838013,64.3995502 C167.295127,63.3301671 167.962684,62.4751247 168.840704,61.8343973 C169.718724,61.1936699 170.764187,60.873311 171.977122,60.873311 C172.73747,60.873311 173.459336,61.0086739 174.142744,61.2794038 C174.826152,61.5501337 175.389615,61.9607346 175.833151,62.5112187 L175.833151,55.5534953 L179.200388,55.5534953 Z M175.296837,70.8496575 C175.844468,70.1096625 176.11828,69.1305374 176.11828,67.9122529 C176.11828,66.7029928 175.842205,65.7261237 175.290048,64.9816165 C174.737891,64.2371094 173.918719,63.8648613 172.832509,63.8648613 C171.746298,63.8648613 170.9226,64.2416214 170.361392,64.995153 C169.800183,65.7486845 169.519582,66.7210414 169.519582,67.9122529 C169.519582,69.1124888 169.79792,70.0871018 170.354603,70.8361211 C170.911286,71.5851405 171.737246,71.9596445 172.832509,71.9596445 C173.927771,71.9596445 174.749206,71.5896526 175.296837,70.8496575 Z M185.025164,73.9901085 C183.993264,73.3493811 183.221613,72.4988508 182.710189,71.4384921 C182.198764,70.3781334 181.943056,69.2207805 181.943056,67.9663986 C181.943056,66.7390898 182.18745,65.5839929 182.676245,64.5010734 C183.16504,63.4181538 183.909535,62.542807 184.909754,61.8750066 C185.909974,61.2072062 187.138731,60.873311 188.596064,60.873311 C190.080552,60.873311 191.293469,61.2139744 192.234852,61.8953112 C193.176234,62.5766481 193.852843,63.4339466 194.264698,64.4672323 C194.676553,65.5005181 194.882477,66.5766532 194.882477,67.6956701 C194.882477,67.9664 194.871163,68.2258456 194.848533,68.4740146 C194.825904,68.7221837 194.796486,68.8958994 194.760279,68.9951671 L185.446068,68.9951671 C185.76288,70.9714953 186.894332,71.9596445 188.84046,71.9596445 C189.483135,71.9596445 190.07149,71.8468421 190.605544,71.6212339 C191.139597,71.3956256 191.637437,71.0301458 192.099076,70.5247833 L194.380107,72.514638 C193.637863,73.335852 192.80964,73.9472412 191.895413,74.3488238 C190.981185,74.7504065 189.953826,74.9511948 188.813305,74.9511948 C187.319765,74.9511948 186.057064,74.6308359 185.025164,73.9901085 Z M191.623861,66.612756 C191.51524,65.656177 191.196171,64.9229612 190.666643,64.4130866 C190.137115,63.903212 189.437877,63.6482785 188.568909,63.6482785 C186.849075,63.6482785 185.808139,64.6364278 185.446068,66.612756 L191.623861,66.612756 Z M199.424173,73.9765721 C198.433006,73.3268204 197.690773,72.4672659 197.197452,71.3978828 C196.704132,70.3284998 196.457475,69.1756589 196.457475,67.9393258 C196.457475,66.712017 196.704132,65.5591761 197.197452,64.4807688 C197.690773,63.4023614 198.42848,62.5315266 199.410596,61.8682384 C200.392711,61.2049502 201.589788,60.873311 203.001862,60.873311 C204.377729,60.873311 205.572543,61.2094623 206.58634,61.8817748 C207.600137,62.5540874 208.360473,63.5490048 208.867371,64.8665569 L205.717376,66.0848353 C205.536341,65.4170349 205.203693,64.8800954 204.719425,64.4740005 C204.235156,64.0679057 203.662641,63.8648613 203.001862,63.8648613 C202.277722,63.8648613 201.678052,64.0566255 201.202835,64.4401595 C200.727617,64.8236935 200.37913,65.3245363 200.157362,65.9427028 C199.935594,66.5608694 199.824712,67.2264037 199.824712,67.9393258 C199.824712,68.6702965 199.933331,69.3380869 200.150573,69.9427169 C200.367815,70.547347 200.71404,71.0346535 201.189257,71.404651 C201.664474,71.7746485 202.26867,71.9596445 203.001862,71.9596445 C203.653589,71.9596445 204.223841,71.7633683 204.712636,71.37081 C205.201431,70.9782516 205.536341,70.4571044 205.717376,69.8073527 L208.731596,70.9444125 C208.279008,72.2078187 207.550352,73.1914558 206.545607,73.8953536 C205.540862,74.5992513 204.368677,74.9511948 203.029017,74.9511948 C201.616943,74.9511948 200.415341,74.6263238 199.424173,73.9765721 Z M211.202713,58.5991913 L211.202713,55.5534953 L214.651415,55.5534953 L214.651415,58.5991913 L211.202713,58.5991913 Z M211.284178,74.6804663 L211.284178,61.157576 L214.569949,61.157576 L214.569949,74.6804663 L211.284178,74.6804663 Z M218.507444,61.157576 L221.793215,61.157576 L221.793215,62.7278015 C222.309165,62.1051228 222.924675,61.6403767 223.639764,61.3335495 C224.354853,61.0267223 225.074457,60.873311 225.798597,60.873311 C226.921015,60.873311 227.851069,61.1395248 228.588787,61.6719602 C229.326505,62.2043957 229.865077,62.9015147 230.204518,63.7633381 C230.543958,64.6251616 230.713676,65.5569097 230.713676,66.5586103 L230.713676,74.6804663 L227.441483,74.6804663 L227.441483,66.9782395 C227.441483,66.0667822 227.215192,65.3290543 226.762604,64.7650337 C226.310016,64.2010131 225.671877,63.919007 224.848167,63.919007 C223.879629,63.919007 223.128345,64.194245 222.594291,64.7447291 C222.060238,65.2952132 221.793215,66.1389753 221.793215,67.2760409 L221.793215,74.6804663 L218.507444,74.6804663 L218.507444,61.157576 Z M236.131125,73.9901085 C235.099225,73.3493811 234.327575,72.4988508 233.81615,71.4384921 C233.304726,70.3781334 233.049018,69.2207805 233.049018,67.9663986 C233.049018,66.7390898 233.293412,65.5839929 233.782206,64.5010734 C234.271001,63.4181538 235.015497,62.542807 236.015716,61.8750066 C237.015935,61.2072062 238.244693,60.873311 239.702026,60.873311 C241.186514,60.873311 242.399431,61.2139744 243.340813,61.8953112 C244.282196,62.5766481 244.958805,63.4339466 245.37066,64.4672323 C245.782515,65.5005181 245.988439,66.5766532 245.988439,67.6956701 C245.988439,67.9664 245.977124,68.2258456 245.954495,68.4740146 C245.931866,68.7221837 245.902448,68.8958994 245.866241,68.9951671 L236.55203,68.9951671 C236.868842,70.9714953 238.000294,71.9596445 239.946422,71.9596445 C240.589096,71.9596445 241.177452,71.8468421 241.711505,71.6212339 C242.245559,71.3956256 242.743398,71.0301458 243.205038,70.5247833 L245.486069,72.514638 C244.743825,73.335852 243.915602,73.9472412 243.001374,74.3488238 C242.087147,74.7504065 241.059788,74.9511948 239.919267,74.9511948 C238.425727,74.9511948 237.163026,74.6308359 236.131125,73.9901085 Z M242.729823,66.612756 C242.621202,65.656177 242.302132,64.9229612 241.772604,64.4130866 C241.243077,63.903212 240.543839,63.6482785 239.67487,63.6482785 C237.955037,63.6482785 236.9141,64.6364278 236.55203,66.612756 L242.729823,66.612756 Z M115.508021,102.403068 L115.508021,83.2760973 L129.112743,83.2760973 L129.112743,86.4300847 L118.956723,86.4300847 L118.956723,91.2625891 L127.917918,91.2625891 L127.917918,94.4165765 L118.956723,94.4165765 L118.956723,102.403068 L115.508021,102.403068 Z M133.824159,101.719479 C132.765104,101.083263 131.945932,100.225965 131.366619,99.1475576 C130.787307,98.0691502 130.497655,96.8892368 130.497655,95.607782 C130.497655,94.3353516 130.787307,93.1644624 131.366619,92.0950793 C131.945932,91.0256962 132.765104,90.1751659 133.824159,89.5434629 C134.883215,88.9117598 136.091606,88.595913 137.449369,88.595913 C138.807133,88.595913 140.015524,88.9117598 141.07458,89.5434629 C142.133635,90.1751659 142.952807,91.0256962 143.532119,92.0950793 C144.111432,93.1644624 144.401084,94.3353516 144.401084,95.607782 C144.401084,96.8892368 144.111432,98.0691502 143.532119,99.1475576 C142.952807,100.225965 142.133635,101.083263 141.07458,101.719479 C140.015524,102.355694 138.807133,102.673797 137.449369,102.673797 C136.091606,102.673797 134.883215,102.355694 133.824159,101.719479 Z M139.431694,99.255849 C139.956696,98.872315 140.34139,98.3624481 140.585787,97.7262328 C140.830185,97.0900176 140.952382,96.3838744 140.952382,95.607782 C140.952382,94.3985219 140.664993,93.4036045 140.090206,92.6229999 C139.51542,91.8423954 138.63515,91.452099 137.449369,91.452099 C136.652815,91.452099 135.992047,91.6393511 135.467045,92.0138607 C134.942043,92.3883704 134.557349,92.8869571 134.312952,93.5096359 C134.068554,94.1323146 133.946357,94.8316897 133.946357,95.607782 C133.946357,96.3838744 134.068554,97.0900176 134.312952,97.7262328 C134.557349,98.3624481 134.942043,98.872315 135.467045,99.255849 C135.992047,99.639383 136.652815,99.8311472 137.449369,99.8311472 C138.245924,99.8311472 138.906692,99.639383 139.431694,99.255849 Z M147.089442,88.8801779 L150.375213,88.8801779 L150.375213,90.4504034 C150.891163,89.8277247 151.506673,89.3629787 152.221762,89.0561515 C152.936851,88.7493243 153.656455,88.595913 154.380595,88.595913 C155.503013,88.595913 156.433067,88.8621267 157.170785,89.3945622 C157.908503,89.9269976 158.447075,90.6241166 158.786516,91.4859401 C159.125957,92.3477636 159.295675,93.2795116 159.295675,94.2812122 L159.295675,102.403068 L156.023481,102.403068 L156.023481,94.7008414 C156.023481,93.7893842 155.79719,93.0516563 155.344603,92.4876357 C154.892015,91.9236151 154.253875,91.641609 153.430166,91.641609 C152.461628,91.641609 151.710343,91.9168469 151.17629,92.467331 C150.642236,93.0178151 150.375213,93.8615773 150.375213,94.9986428 L150.375213,102.403068 L147.089442,102.403068 L147.089442,88.8801779 Z M164.62487,101.699174 C163.633702,101.049422 162.891469,100.189868 162.398149,99.1204848 C161.904828,98.0511017 161.658171,96.8982609 161.658171,95.6619277 C161.658171,94.4346189 161.904828,93.2817781 162.398149,92.2033707 C162.891469,91.1249633 163.629176,90.2541286 164.611292,89.5908404 C165.593408,88.9275521 166.790484,88.595913 168.202558,88.595913 C169.578425,88.595913 170.773239,88.9320642 171.787036,89.6043768 C172.800833,90.2766893 173.561169,91.2716067 174.068067,92.5891589 L170.918072,93.8074373 C170.737037,93.1396369 170.40439,92.6026973 169.920121,92.1966025 C169.435852,91.7905077 168.863337,91.5874633 168.202558,91.5874633 C167.478418,91.5874633 166.878748,91.7792274 166.403531,92.1627614 C165.928314,92.5462954 165.579826,93.0471382 165.358058,93.6653048 C165.13629,94.2834714 165.025408,94.9490057 165.025408,95.6619277 C165.025408,96.3928984 165.134027,97.0606888 165.351269,97.6653189 C165.568512,98.269949 165.914736,98.7572555 166.389953,99.127253 C166.86517,99.4972505 167.469366,99.6822465 168.202558,99.6822465 C168.854285,99.6822465 169.424537,99.4859703 169.913332,99.0934119 C170.402127,98.7008536 170.737037,98.1797064 170.918072,97.5299546 L173.932292,98.6670145 C173.479704,99.9304206 172.751048,100.914058 171.746303,101.617956 C170.741558,102.321853 169.569374,102.673797 168.229714,102.673797 C166.81764,102.673797 165.616037,102.348926 164.62487,101.699174 Z M179.01709,102.186485 C178.378942,101.86161 177.890154,101.39912 177.550713,100.799002 C177.211272,100.198884 177.041554,99.4882285 177.041554,98.6670145 L177.041554,91.641609 L174.855566,91.641609 L174.855566,88.8801779 L177.095865,88.8801779 L177.095865,85.5231441 L180.327326,83.1678059 L180.327326,88.8801779 L183.748872,88.8801779 L183.748872,91.641609 L180.327326,91.641609 L180.327326,98.0849481 C180.327326,98.6986025 180.4631,99.1317639 180.734653,99.3844451 C181.006205,99.6371263 181.381848,99.763465 181.861591,99.763465 C182.178402,99.763465 182.504261,99.716088 182.839175,99.6213326 C183.17409,99.5265771 183.47732,99.4115186 183.748872,99.2761537 L183.748872,102.267704 C183.468268,102.375996 183.099414,102.47075 182.642301,102.551969 C182.185187,102.633188 181.739395,102.673797 181.30491,102.673797 C180.417838,102.673797 179.655239,102.511361 179.01709,102.186485 Z M186.640894,86.3217933 L186.640894,83.2760973 L190.089596,83.2760973 L190.089596,86.3217933 L186.640894,86.3217933 Z M186.72236,102.403068 L186.72236,88.8801779 L190.008131,88.8801779 L190.008131,102.403068 L186.72236,102.403068 Z M195.995838,101.719479 C194.936782,101.083263 194.117611,100.225965 193.538298,99.1475576 C192.958986,98.0691502 192.669334,96.8892368 192.669334,95.607782 C192.669334,94.3353516 192.958986,93.1644624 193.538298,92.0950793 C194.117611,91.0256962 194.936782,90.1751659 195.995838,89.5434629 C197.054893,88.9117598 198.263285,88.595913 199.621048,88.595913 C200.978812,88.595913 202.187203,88.9117598 203.246258,89.5434629 C204.305314,90.1751659 205.124486,91.0256962 205.703798,92.0950793 C206.283111,93.1644624 206.572762,94.3353516 206.572762,95.607782 C206.572762,96.8892368 206.283111,98.0691502 205.703798,99.1475576 C205.124486,100.225965 204.305314,101.083263 203.246258,101.719479 C202.187203,102.355694 200.978812,102.673797 199.621048,102.673797 C198.263285,102.673797 197.054893,102.355694 195.995838,101.719479 Z M201.603373,99.255849 C202.128375,98.872315 202.513069,98.3624481 202.757466,97.7262328 C203.001864,97.0900176 203.12406,96.3838744 203.12406,95.607782 C203.12406,94.3985219 202.836671,93.4036045 202.261885,92.6229999 C201.687098,91.8423954 200.806828,91.452099 199.621048,91.452099 C198.824494,91.452099 198.163725,91.6393511 197.638723,92.0138607 C197.113722,92.3883704 196.729028,92.8869571 196.48463,93.5096359 C196.240233,94.1323146 196.118036,94.8316897 196.118036,95.607782 C196.118036,96.3838744 196.240233,97.0900176 196.48463,97.7262328 C196.729028,98.3624481 197.113722,98.872315 197.638723,99.255849 C198.163725,99.639383 198.824494,99.8311472 199.621048,99.8311472 C200.417603,99.8311472 201.078371,99.639383 201.603373,99.255849 Z M209.261121,88.8801779 L212.546892,88.8801779 L212.546892,90.4504034 C213.062842,89.8277247 213.678352,89.3629787 214.393441,89.0561515 C215.10853,88.7493243 215.828134,88.595913 216.552274,88.595913 C217.674692,88.595913 218.604746,88.8621267 219.342464,89.3945622 C220.080182,89.9269976 220.618754,90.6241166 220.958194,91.4859401 C221.297635,92.3477636 221.467353,93.2795116 221.467353,94.2812122 L221.467353,102.403068 L218.19516,102.403068 L218.19516,94.7008414 C218.19516,93.7893842 217.968869,93.0516563 217.516281,92.4876357 C217.063693,91.9236151 216.425554,91.641609 215.601844,91.641609 C214.633306,91.641609 213.882022,91.9168469 213.347968,92.467331 C212.813915,93.0178151 212.546892,93.8615773 212.546892,94.9986428 L212.546892,102.403068 L209.261121,102.403068 L209.261121,88.8801779 Z M225.024676,88.8801779 L228.310447,88.8801779 L228.310447,90.4504034 C228.826397,89.8277247 229.441907,89.3629787 230.156996,89.0561515 C230.872085,88.7493243 231.591689,88.595913 232.315829,88.595913 C233.438247,88.595913 234.368301,88.8621267 235.106019,89.3945622 C235.843737,89.9269976 236.382309,90.6241166 236.72175,91.4859401 C237.06119,92.3477636 237.230908,93.2795116 237.230908,94.2812122 L237.230908,102.403068 L233.958715,102.403068 L233.958715,94.7008414 C233.958715,93.7893842 233.732424,93.0516563 233.279836,92.4876357 C232.827249,91.9236151 232.189109,91.641609 231.365399,91.641609 C230.396862,91.641609 229.645577,91.9168469 229.111523,92.467331 C228.57747,93.0178151 228.310447,93.8615773 228.310447,94.9986428 L228.310447,102.403068 L225.024676,102.403068 L225.024676,88.8801779 Z M242.648358,101.71271 C241.616457,101.071983 240.844807,100.221453 240.333382,99.1610941 C239.821958,98.1007353 239.56625,96.9433824 239.56625,95.6890006 C239.56625,94.4616918 239.810644,93.3065949 240.299438,92.2236754 C240.788233,91.1407558 241.532729,90.265409 242.532948,89.5976086 C243.533167,88.9298082 244.761925,88.595913 246.219258,88.595913 C247.703746,88.595913 248.916663,88.9365763 249.858046,89.6179132 C250.799428,90.2992501 251.476037,91.1565485 251.887892,92.1898343 C252.299747,93.22312 252.505671,94.2992552 252.505671,95.4182721 C252.505671,95.6890019 252.494357,95.9484475 252.471727,96.1966166 C252.449098,96.4447857 252.41968,96.6185014 252.383473,96.717769 L243.069262,96.717769 C243.386074,98.6940972 244.517526,99.6822465 246.463654,99.6822465 C247.106329,99.6822465 247.694684,99.5694441 248.228738,99.3438358 C248.762791,99.1182276 249.26063,98.7527477 249.72227,98.2473852 L252.003301,100.23724 C251.261057,101.058454 250.432834,101.669843 249.518606,102.071426 C248.604379,102.473008 247.57702,102.673797 246.436499,102.673797 C244.942959,102.673797 243.680258,102.353438 242.648358,101.71271 Z M249.247055,94.3353579 C249.138434,93.378779 248.819364,92.6455632 248.289837,92.1356886 C247.760309,91.625814 247.061071,91.3708805 246.192103,91.3708805 C244.472269,91.3708805 243.431332,92.3590297 243.069262,94.3353579 L249.247055,94.3353579 Z M255.954373,102.01728 C255.447475,101.5796 255.194029,100.810288 255.194029,99.7093193 L255.194029,83.2760973 L258.506956,83.2760973 L258.506956,98.8023787 C258.506956,99.4070088 258.86902,99.7093193 259.593161,99.7093193 C259.84661,99.7093193 260.149839,99.6822468 260.502858,99.6281008 L260.502858,102.403068 C259.579579,102.583555 258.755881,102.673797 258.031741,102.673797 C257.15372,102.673797 256.461271,102.45496 255.954373,102.01728 Z M263.734319,102.01728 C263.227421,101.5796 262.973975,100.810288 262.973975,99.7093193 L262.973975,83.2760973 L266.286901,83.2760973 L266.286901,98.8023787 C266.286901,99.4070088 266.648966,99.7093193 267.373107,99.7093193 C267.626556,99.7093193 267.929785,99.6822468 268.282804,99.6281008 L268.282804,102.403068 C267.359525,102.583555 266.535827,102.673797 265.811687,102.673797 C264.933666,102.673797 264.241217,102.45496 263.734319,102.01728 Z M272.695513,101.71271 C271.663613,101.071983 270.891962,100.221453 270.380538,99.1610941 C269.869114,98.1007353 269.613405,96.9433824 269.613405,95.6890006 C269.613405,94.4616918 269.857799,93.3065949 270.346594,92.2236754 C270.835389,91.1407558 271.579885,90.265409 272.580104,89.5976086 C273.580323,88.9298082 274.80908,88.595913 276.266413,88.595913 C277.750901,88.595913 278.963818,88.9365763 279.905201,89.6179132 C280.846584,90.2992501 281.523192,91.1565485 281.935047,92.1898343 C282.346902,93.22312 282.552827,94.2992552 282.552827,95.4182721 C282.552827,95.6890019 282.541512,95.9484475 282.518883,96.1966166 C282.496253,96.4447857 282.466835,96.6185014 282.430628,96.717769 L273.116418,96.717769 C273.433229,98.6940972 274.564682,99.6822465 276.510809,99.6822465 C277.153484,99.6822465 277.741839,99.5694441 278.275893,99.3438358 C278.809947,99.1182276 279.307786,98.7527477 279.769425,98.2473852 L282.050457,100.23724 C281.308213,101.058454 280.479989,101.669843 279.565762,102.071426 C278.651534,102.473008 277.624176,102.673797 276.483654,102.673797 C274.990114,102.673797 273.727413,102.353438 272.695513,101.71271 Z M279.294211,94.3353579 C279.185589,93.378779 278.86652,92.6455632 278.336992,92.1356886 C277.807464,91.625814 277.108227,91.3708805 276.239258,91.3708805 C274.519424,91.3708805 273.478488,92.3590297 273.116418,94.3353579 L279.294211,94.3353579 Z"/>
    <path fill-rule="nonzero" d="M78.4164909,36.4544795 L53.7412021,0 L13.2856096,57.261402 L31.8493197,57.261402 L0,101.069519 L50.3883539,101.069519 C52.207998,101.069519 53.6831111,99.5985016 53.6831111,97.78391 C53.6831111,95.9693184 52.207998,94.4983012 50.3883539,94.4983012 L12.9165153,94.4983012 L44.7658351,50.6901845 L25.9889634,50.6901845 L53.6250201,11.5737297 L76.9448106,46.0256395 C77.1007686,47.1034528 77.3810428,48.1481302 77.7927341,49.1462567 C81.7822319,59.7368984 83.3642741,62.4008021 83.3642741,70.8473262 L80.4753275,70.8473262 C80.3377586,61.5561497 76.6233986,55.3836898 71.120643,53.4994652 C68.644403,52.5898396 65.549103,53.0446524 62.6601563,55.8385027 C59.0833652,59.2820856 58.0515985,68.8331551 68.5068341,70.6524064 C67.3374985,69.0930481 67.4750674,65.6494652 69.6761697,64.4799465 C71.3269963,63.7002674 73.2529608,63.9601604 74.1471586,64.6748663 C75.5916319,65.5195187 76.9673208,68.1184492 76.9673208,70.7823529 L72.0148408,70.7823529 L72.0148408,76.0451872 L82.3325075,76.0451872 C82.1949386,78.7090909 80.6128964,80.9181818 77.7239497,82.0877005 C78.1366564,83.2572193 79.8562675,85.5312834 82.263723,85.4013369 C82.7452141,87.8703209 83.2267053,89.2347594 85.359023,91.4438503 C87.5601253,89.2347594 87.9728319,87.8703209 88.4543231,85.4013369 C90.8617786,85.5312834 92.6501742,83.192246 92.9940964,82.0877005 C90.1051497,80.9181818 88.5231075,78.7090909 88.3855386,76.0451872 L98.7032053,76.0451872 L98.7032053,70.7823529 L93.7507253,70.7823529 C93.7507253,68.1184492 95.1264142,65.5195187 96.5708875,64.6748663 C97.4650853,64.0251337 99.3222653,63.7002674 101.041876,64.4799465 C103.242979,65.7144385 103.311763,69.0930481 102.348781,70.6524064 C112.804016,68.8331551 111.77225,59.2820856 108.195459,55.8385027 C105.306512,53.0446524 102.142428,52.5898396 99.734972,53.4994652 C94.2322164,55.3836898 90.5866408,61.621123 90.3802875,70.8473262 L87.4913408,70.8473262 C87.4913408,62.4008021 89.0045986,59.7368984 93.0628808,49.1462567 C95.1264142,44.2082888 93.8882942,38.0358289 90.2427186,32.3181818 C88.9358142,30.3040107 87.2849875,28.4197861 85.4278075,26.4705882 C83.5706275,28.4197861 81.9198008,30.3040107 80.6128964,32.3181818 C79.7379778,33.6747932 79.0017225,35.0613429 78.4164909,36.4544795 Z"/>
  </g>
</svg>
